<?xml version="1.0" encoding="utf-8"?>
<!-- Generator: Adobe Illustrator 27.7.0, SVG Export Plug-In . SVG Version: 6.00 Build 0)  -->
<!DOCTYPE svg [
	<!ENTITY ns_extend "http://ns.adobe.com/Extensibility/1.0/">
	<!ENTITY ns_ai "http://ns.adobe.com/AdobeIllustrator/10.0/">
	<!ENTITY ns_graphs "http://ns.adobe.com/Graphs/1.0/">
	<!ENTITY ns_vars "http://ns.adobe.com/Variables/1.0/">
	<!ENTITY ns_imrep "http://ns.adobe.com/ImageReplacement/1.0/">
	<!ENTITY ns_sfw "http://ns.adobe.com/SaveForWeb/1.0/">
	<!ENTITY ns_custom "http://ns.adobe.com/GenericCustomNamespace/1.0/">
	<!ENTITY ns_adobe_xpath "http://ns.adobe.com/XPath/1.0/">
]>
<svg version="1.2" baseProfile="tiny" id="Calque_1" xmlns:x="&ns_extend;" xmlns:i="&ns_ai;" xmlns:graph="&ns_graphs;"
	 xmlns="http://www.w3.org/2000/svg" xmlns:xlink="http://www.w3.org/1999/xlink" x="0px" y="0px" viewBox="0 0 431.0039368 97"
	 overflow="visible" xml:space="preserve">
<metadata>
	<sfw  xmlns="&ns_sfw;">
		<slices></slices>
		<sliceSourceBounds  bottomLeftOrigin="true" height="79.6233191" width="403.027128" x="-32.5202921" y="-360.3952917">
			</sliceSourceBounds>
	</sfw>
</metadata>
<g>
	<g>
		<linearGradient id="SVGID_1_" gradientUnits="userSpaceOnUse" x1="86.7692032" y1="67.3477936" x2="9.8169785" y2="67.3477936">
			<stop  offset="0" style="stop-color:#FFFFFF"/>
			<stop  offset="0.3006249" style="stop-color:#FDFADD"/>
			<stop  offset="0.7672719" style="stop-color:#FBF4AD"/>
			<stop  offset="1" style="stop-color:#FAF19B"/>
		</linearGradient>
		<path fill="url(#SVGID_1_)" d="M68.3920517,85.7256927H28.1948795c-10.1498718,0-18.3779011-8.2280273-18.3779011-18.3778992
			s8.2280293-18.377903,18.3779011-18.377903h40.1971741c10.1498718,0,18.3771515,8.2280273,18.3771515,18.377903
			S78.5419235,85.7256927,68.3920517,85.7256927z"/>
	</g>
	<g>
		
			<linearGradient id="SVGID_00000098183801392383940030000013117383088144919228_" gradientUnits="userSpaceOnUse" x1="81.387291" y1="80.3430405" x2="26.9729748" y2="25.9287186">
			<stop  offset="0" style="stop-color:#FFFFFF"/>
			<stop  offset="0.0288237" style="stop-color:#FAFDFE"/>
			<stop  offset="0.4987828" style="stop-color:#ADE1F2"/>
			<stop  offset="0.8338945" style="stop-color:#7DCFEB"/>
			<stop  offset="1" style="stop-color:#6BC8E8"/>
		</linearGradient>
		<path fill="url(#SVGID_00000098183801392383940030000013117383088144919228_)" d="M68.3920517,85.7256927
			c-4.7036552,0-9.4065628-1.7939682-12.9952469-5.3826523l-28.42383-28.4238319
			c-7.1766224-7.177372-7.1766224-18.813118,0-25.99049c7.1773739-7.177372,18.8131199-7.177372,25.9904919,0L81.387291,54.3525467
			c7.1766281,7.177372,7.1766281,18.813118,0,25.9904938C77.7986069,83.9317245,73.0957031,85.7256927,68.3920517,85.7256927z"/>
	</g>
	<g>
		
			<linearGradient id="SVGID_00000129173881006141178490000000055557683495816893_" gradientUnits="userSpaceOnUse" x1="68.3916779" y1="85.7256927" x2="68.3916779" y2="8.7719727">
			<stop  offset="0" style="stop-color:#FFFFFF"/>
			<stop  offset="0.35574" style="stop-color:#E0D3E7"/>
			<stop  offset="0.7855465" style="stop-color:#BFA3CD"/>
			<stop  offset="1" style="stop-color:#B291C3"/>
		</linearGradient>
		<path fill="url(#SVGID_00000129173881006141178490000000055557683495816893_)" d="M68.3920517,85.7256927
			c-10.1498756,0-18.377903-8.2280273-18.377903-18.3778992V27.1498737c0-10.1498718,8.2280273-18.3779011,18.377903-18.3779011
			s18.3771515,8.2280293,18.3771515,18.3779011v40.1979218C86.7692032,77.4976654,78.5419235,85.7256927,68.3920517,85.7256927z"/>
	</g>
	<g>
		
			<linearGradient id="SVGID_00000111177656735358884320000016309750795604247481_" gradientUnits="userSpaceOnUse" x1="55.3969917" y1="80.3432236" x2="109.8116837" y2="25.9285316">
			<stop  offset="0" style="stop-color:#FFFFFF"/>
			<stop  offset="0.1786221" style="stop-color:#FDEEF1"/>
			<stop  offset="0.726818" style="stop-color:#F6BECB"/>
			<stop  offset="1" style="stop-color:#F4ACBC"/>
		</linearGradient>
		<path fill="url(#SVGID_00000111177656735358884320000016309750795604247481_)" d="M68.3920517,85.7256927
			c-4.7036552,0-9.4065628-1.7939682-12.9952469-5.3826523c-7.1766243-7.1773758-7.1766243-18.8138695,0-25.9904938
			l28.4245758-28.4238281c7.1773682-7.1766243,18.813118-7.1766243,25.9904861,0
			c7.1773758,7.177372,7.1773758,18.8138657,0,25.99049L81.387291,80.3430405
			C77.7986069,83.9309769,73.0949554,85.7256927,68.3920517,85.7256927z"/>
	</g>
	<g>
		
			<linearGradient id="SVGID_00000039112311006040091800000008172415283104066721_" gradientUnits="userSpaceOnUse" x1="50.0137749" y1="67.3477936" x2="126.9674911" y2="67.3477936">
			<stop  offset="0" style="stop-color:#FFFFFF"/>
			<stop  offset="0.4283046" style="stop-color:#C2E5E1"/>
			<stop  offset="0.8105035" style="stop-color:#92D0C9"/>
			<stop  offset="1" style="stop-color:#80C8C0"/>
		</linearGradient>
		<path fill="url(#SVGID_00000039112311006040091800000008172415283104066721_)" d="M108.589592,85.7256927H68.3916779
			c-10.1498756,0-18.377903-8.2280273-18.377903-18.3778992s8.2280273-18.377903,18.377903-18.377903h40.1979141
			c10.1491241,0,18.3778992,8.2280273,18.3778992,18.377903S118.7387161,85.7256927,108.589592,85.7256927z"/>
	</g>
	<circle fill="#FFFFFF" cx="68.3916779" cy="67.3477936" r="18.3779011"/>
</g>
<g id="_x3C_Calque_x3E_">
</g>
<g>
	<path fill="#383838" d="M148.7391205,27.1416016h-3.8276367V12.4013672h3.8276367V27.1416016z"/>
	<path fill="#383838" d="M155.0286713,16.4277344v0.9897461c0.2490234-0.3662109,0.65625-0.659668,1.2211914-0.8798828
		c0.5644531-0.2202148,1.1469727-0.3300781,1.7485352-0.3300781c1.4667969,0,2.5522461,0.4106445,3.2563477,1.2319336
		c0.7041016,0.8217773,1.0556641,1.9658203,1.0556641,3.4321289v6.2700195h-3.6958008v-5.4121094
		c0-0.8500977-0.1318359-1.4555664-0.3959961-1.8149414s-0.7480469-0.5390625-1.4521484-0.5390625
		c-0.527832,0-1.0336914,0.1323242-1.5180664,0.3959961v7.3701172h-3.6958008V16.4277344H155.0286713z"/>
	<path fill="#383838" d="M165.5359955,16.4277344v-0.5063477c0-1.3491211,0.4248047-2.3828125,1.2758789-3.1015625
		c0.8505859-0.71875,1.9433594-1.078125,3.277832-1.078125c0.7626953,0,1.4301758,0.0585938,2.0019531,0.1757812v3.0800781
		c-0.3959961-0.0732422-0.7700195-0.1098633-1.1220703-0.1098633c-1.1586914,0-1.737793,0.5136719-1.737793,1.5400391h2.8598633
		v2.9697266h-2.8598633v7.7441406h-3.6958008v-7.7441406h-1.5400391v-2.9697266H165.5359955z"/>
	<path fill="#383838" d="M173.3768158,21.7734375c0-1.5839844,0.5751953-2.9072266,1.7270508-3.9707031
		c1.1513672-1.0634766,2.5771484-1.5952148,4.2788086-1.5952148c1.7011719,0,3.1352539,0.5317383,4.3012695,1.5952148
		s1.7490234,2.3867188,1.7490234,3.9707031s-0.5795898,2.9116211-1.7382812,3.9819336
		c-1.1733398,1.0708008-2.6108398,1.605957-4.3120117,1.605957c-1.7016602,0-3.1274414-0.5351562-4.2788086-1.605957
		C173.9520111,24.6850586,173.3768158,23.3574219,173.3768158,21.7734375z M177.7327728,23.4897461
		c0.4106445,0.4545898,0.9604492,0.6816406,1.6499023,0.6816406s1.246582-0.2231445,1.6723633-0.6708984
		c0.4248047-0.4472656,0.6376953-1.0229492,0.6376953-1.7270508c0-0.6889648-0.2128906-1.2612305-0.6376953-1.7158203
		c-0.4257812-0.4545898-0.9829102-0.6821289-1.6723633-0.6821289c-0.6748047,0-1.2207031,0.2275391-1.6386719,0.6821289
		s-0.6274414,1.0268555-0.6274414,1.7158203C177.1165619,22.4775391,177.3221283,23.0498047,177.7327728,23.4897461z"/>
	<path fill="#383838" d="M187.443222,16.4277344h3.4760742v1.1000977c0.2197266-0.3959961,0.5644531-0.6967773,1.0341797-0.9023438
		c0.4692383-0.2050781,0.9677734-0.3081055,1.4956055-0.3081055c0.3666992,0,0.7480469,0.0444336,1.144043,0.1323242v3.3217773
		c-0.4692383-0.0439453-0.9316406-0.065918-1.3857422-0.065918c-0.8359375,0-1.5258789,0.1098633-2.0683594,0.3300781v7.105957
		h-3.6958008V16.4277344z"/>
	<path fill="#383838" d="M199.7698822,16.4277344v0.9897461c0.2490234-0.3662109,0.65625-0.659668,1.2211914-0.8798828
		c0.5644531-0.2202148,1.1469727-0.3300781,1.7485352-0.3300781c1.5400391,0,2.6767578,0.4697266,3.4101562,1.4082031
		c0.2641602-0.4106445,0.7075195-0.7480469,1.3310547-1.012207c0.6230469-0.2636719,1.2504883-0.3959961,1.8808594-0.3959961
		c1.4960938,0,2.6625977,0.4179688,3.4985352,1.2539062s1.2539062,1.9731445,1.2539062,3.4101562v6.2700195h-3.6962891v-5.4121094
		c0-0.8500977-0.1318359-1.4555664-0.3959961-1.8149414s-0.7480469-0.5390625-1.4521484-0.5390625
		c-0.5424805,0-1.0708008,0.1396484-1.5839844,0.4179688c0.0439453,0.3378906,0.065918,0.6967773,0.065918,1.078125v6.2700195
		h-3.6958008v-5.4121094c0-0.8500977-0.1318359-1.4555664-0.3959961-1.8149414s-0.7480469-0.5390625-1.4521484-0.5390625
		c-0.527832,0-1.0336914,0.1323242-1.5180664,0.3959961v7.3701172h-3.6958008V16.4277344H199.7698822z"/>
	<path fill="#383838" d="M217.5340424,17.7915039c0.96875-1.0556641,2.2363281-1.5839844,3.8066406-1.5839844
		c1.3632812,0,2.3173828,0.3520508,2.859375,1.0561523v-0.8359375h3.4765625v10.7138672h-3.4765625v-0.8359375
		c-0.5576172,0.7041016-1.5107422,1.0556641-2.859375,1.0556641c-1.5703125,0-2.8378906-0.53125-3.8066406-1.5947266
		c-0.9677734-1.0629883-1.4521484-2.394043-1.4521484-3.9931641
		C216.0818939,20.1894531,216.5662689,18.8623047,217.5340424,17.7915039z M220.4608002,23.5117188
		c0.4248047,0.4545898,0.9746094,0.6816406,1.6494141,0.6816406c0.6308594,0,1.2685547-0.1904297,1.9140625-0.5717773v-3.6958008
		c-0.5869141-0.3666992-1.2246094-0.550293-1.9140625-0.550293c-0.6748047,0-1.2246094,0.2275391-1.6494141,0.6821289
		c-0.4257812,0.4545898-0.6386719,1.0268555-0.6386719,1.7158203
		C219.8221283,22.4775391,220.0350189,23.0571289,220.4608002,23.5117188z"/>
	<path fill="#383838" d="M231.0604095,16.4277344v-2.684082h3.6962891v2.684082h2.859375v2.9697266h-2.859375v2.9702148
		c0,0.6308594,0.1455078,1.078125,0.4394531,1.3417969c0.2929688,0.2641602,0.7255859,0.3959961,1.2978516,0.3959961
		c0.3525391,0,0.7265625-0.0361328,1.1220703-0.1098633v3.0795898c-0.5722656,0.1171875-1.2392578,0.1757812-2.0019531,0.1757812
		c-1.3642578,0-2.4638672-0.3256836-3.2998047-0.9785156c-0.8359375-0.6523438-1.2539062-1.6459961-1.2539062-2.980957v-3.894043
		h-1.5400391v-2.9697266H231.0604095z"/>
	<path fill="#383838" d="M239.5457611,13.1713867c0-0.5571289,0.2050781-1.0371094,0.6152344-1.440918
		c0.4111328-0.4033203,0.9101562-0.6049805,1.4960938-0.6049805c0.5869141,0,1.0859375,0.2016602,1.4960938,0.6049805
		c0.4111328,0.4038086,0.6162109,0.8837891,0.6162109,1.440918c0,0.5576172-0.2050781,1.0341797-0.6162109,1.4301758
		c-0.4101562,0.4106445-0.9091797,0.6162109-1.4960938,0.6162109c-0.5859375,0-1.0849609-0.2016602-1.4960938-0.6049805
		C239.7508392,14.2094727,239.5457611,13.7290039,239.5457611,13.1713867z M239.809433,27.1416016V16.4277344h3.6962891v10.7138672
		H239.809433z"/>
	<path fill="#383838" d="M246.9871674,17.7915039c0.96875-1.0556641,2.2363281-1.5839844,3.8066406-1.5839844
		c1.3486328,0,2.3017578,0.3520508,2.8598633,1.0561523v-0.8359375h3.4765778v15.1132812h-3.6963043v-4.9936523
		c-0.6166992,0.5424805-1.496582,0.8139648-2.6401367,0.8139648c-1.5703125,0-2.8378906-0.53125-3.8066406-1.5947266
		c-0.9677734-1.0629883-1.4521484-2.387207-1.4521484-3.9711914
		C245.5350189,20.1972656,246.0193939,18.8623047,246.9871674,17.7915039z M249.9139252,23.5117188
		c0.4248047,0.4545898,0.9746094,0.6816406,1.6494141,0.6816406c0.6894531,0,1.3271484-0.1831055,1.9145508-0.5498047v-3.6958008
		c-0.6459961-0.3813477-1.2836914-0.5722656-1.9145508-0.5722656c-0.6748047,0-1.2246094,0.2275391-1.6494141,0.6821289
		c-0.4257812,0.4545898-0.6386719,1.0341797-0.6386719,1.737793
		C249.2752533,22.4853516,249.4881439,23.0571289,249.9139252,23.5117188z"/>
	<path fill="#383838" d="M259.6087646,16.4277344h3.6962891v5.8520508c0,0.6303711,0.1357422,1.1074219,0.4072266,1.4296875
		c0.2714844,0.3227539,0.7509766,0.4838867,1.4404297,0.4838867c0.5136719,0,0.9902344-0.1171875,1.4306641-0.3515625v-7.4140625
		h3.6953125v10.7138672h-3.453125v-0.9018555c-0.2646484,0.3374023-0.6748047,0.6083984-1.2324219,0.8139648
		c-0.5576172,0.2050781-1.1152344,0.3076172-1.671875,0.3076172c-1.4667969,0-2.5517578-0.4101562-3.2558594-1.2319336
		c-0.7041016-0.8208008-1.0566406-1.9648438-1.0566406-3.4316406V16.4277344z"/>
	<path fill="#383838" d="M283.8343506,21.7954102c0,0.3520508-0.0224609,0.7041016-0.0664062,1.0561523h-7.8095703
		c0.4541016,0.9975586,1.5175781,1.4960938,3.1894531,1.4960938c1.1582031,0,2.3173828-0.2050781,3.4765625-0.6162109v2.9482422
		c-1.0859375,0.4541016-2.3544922,0.6816406-3.8066406,0.6816406c-1.9941406,0-3.5751953-0.5058594-4.7412109-1.5175781
		c-1.1660156-1.012207-1.7490234-2.3686523-1.7490234-4.0703125c0-1.5981445,0.546875-2.9257812,1.6396484-3.9819336
		c1.0917969-1.0556641,2.4667969-1.5839844,4.125-1.5839844c1.6572266,0,3.0283203,0.5283203,4.1142578,1.5839844
		C283.2913818,18.8476562,283.8343506,20.1826172,283.8343506,21.7954102z M278.0921631,19.199707
		c-1.1298828,0-1.8632812,0.4985352-2.2001953,1.4960938h4.3339844
		C279.9036865,19.6982422,279.1917725,19.199707,278.0921631,19.199707z"/>
	<path fill="#383838" d="M300.333374,21.7954102c0,0.3520508-0.0224609,0.7041016-0.0664062,1.0561523h-7.8095703
		c0.4541016,0.9975586,1.5175781,1.4960938,3.1894531,1.4960938c1.1582031,0,2.3173828-0.2050781,3.4765625-0.6162109v2.9482422
		c-1.0859375,0.4541016-2.3544922,0.6816406-3.8066406,0.6816406c-1.9941406,0-3.5751953-0.5058594-4.7412109-1.5175781
		c-1.1660156-1.012207-1.7490234-2.3686523-1.7490234-4.0703125c0-1.5981445,0.546875-2.9257812,1.6396484-3.9819336
		c1.0917969-1.0556641,2.4667969-1.5839844,4.125-1.5839844c1.6572266,0,3.0283203,0.5283203,4.1142578,1.5839844
		C299.7904053,18.8476562,300.333374,20.1826172,300.333374,21.7954102z M294.5911865,19.199707
		c-1.1298828,0-1.8632812,0.4985352-2.2001953,1.4960938h4.3339844
		C296.40271,19.6982422,295.6907959,19.199707,294.5911865,19.199707z"/>
	<path fill="#383838" d="M303.0706787,16.4277344v-2.684082h3.6962891v2.684082h2.859375v2.9697266h-2.859375v2.9702148
		c0,0.6308594,0.1455078,1.078125,0.4394531,1.3417969c0.2929688,0.2641602,0.7255859,0.3959961,1.2978516,0.3959961
		c0.3525391,0,0.7265625-0.0361328,1.1220703-0.1098633v3.0795898c-0.5722656,0.1171875-1.2392578,0.1757812-2.0019531,0.1757812
		c-1.3642578,0-2.4638672-0.3256836-3.2998047-0.9785156c-0.8359375-0.6523438-1.2539062-1.6459961-1.2539062-2.980957v-3.894043
		h-1.5400391v-2.9697266H303.0706787z"/>
	<path fill="#383838" d="M315.8294678,17.1977539c0.7626953-0.6601562,1.8183594-0.9902344,3.1679688-0.9902344
		c1.4228516,0,2.6914062,0.2055664,3.8056641,0.6162109v2.8598633c-1.3193359-0.4106445-2.5664062-0.6162109-3.7392578-0.6162109
		c-0.6904297,0-1.0341797,0.1616211-1.0341797,0.484375c0,0.1464844,0.0878906,0.2602539,0.2636719,0.3408203
		s0.4980469,0.1723633,0.9677734,0.2749023l0.9238281,0.1982422c1.1738281,0.2495117,2.03125,0.6269531,2.5742188,1.1328125
		s0.8144531,1.2285156,0.8144531,2.1669922c0,1.1000977-0.4111328,1.9912109-1.2324219,2.6728516
		c-0.8212891,0.6821289-2.0097656,1.0229492-3.5634766,1.0229492c-1.3789062,0-2.6474609-0.2421875-3.8066406-0.7255859V23.621582
		c1.3349609,0.5576172,2.6542969,0.8359375,3.9599609,0.8359375c0.8505859,0,1.2763672-0.1904297,1.2763672-0.5717773
		c0-0.1611328-0.0810547-0.2822266-0.2421875-0.3632812c-0.1611328-0.0800781-0.4765625-0.1650391-0.9462891-0.2529297
		l-1.0332031-0.2197266c-2.2001953-0.4692383-3.3007812-1.5546875-3.3007812-3.2563477
		C314.6849365,18.7231445,315.0667725,17.8574219,315.8294678,17.1977539z"/>
	<path fill="#383838" d="M324.1898193,16.4277344h4.0039062l2.3320312,5.3457031l2.3535156-5.3457031h3.9384766
		l-7.2158203,15.1132812h-3.8945312l2.9257812-5.8735352L324.1898193,16.4277344z"/>
	<path fill="#383838" d="M338.6282959,17.1977539c0.7626953-0.6601562,1.8183594-0.9902344,3.1679688-0.9902344
		c1.4228516,0,2.6914062,0.2055664,3.8056641,0.6162109v2.8598633c-1.3193359-0.4106445-2.5664062-0.6162109-3.7392578-0.6162109
		c-0.6904297,0-1.0341797,0.1616211-1.0341797,0.484375c0,0.1464844,0.0878906,0.2602539,0.2636719,0.3408203
		s0.4980469,0.1723633,0.9677734,0.2749023l0.9238281,0.1982422c1.1738281,0.2495117,2.03125,0.6269531,2.5742188,1.1328125
		s0.8144531,1.2285156,0.8144531,2.1669922c0,1.1000977-0.4111328,1.9912109-1.2324219,2.6728516
		c-0.8212891,0.6821289-2.0097656,1.0229492-3.5634766,1.0229492c-1.3789062,0-2.6474609-0.2421875-3.8066406-0.7255859V23.621582
		c1.3349609,0.5576172,2.6542969,0.8359375,3.9599609,0.8359375c0.8505859,0,1.2763672-0.1904297,1.2763672-0.5717773
		c0-0.1611328-0.0810547-0.2822266-0.2421875-0.3632812c-0.1611328-0.0800781-0.4765625-0.1650391-0.9462891-0.2529297
		l-1.0332031-0.2197266c-2.2001953-0.4692383-3.3007812-1.5546875-3.3007812-3.2563477
		C337.4837646,18.7231445,337.8656006,17.8574219,338.6282959,17.1977539z"/>
	<path fill="#383838" d="M348.989624,16.4277344v-2.684082h3.6962891v2.684082h2.859375v2.9697266h-2.859375v2.9702148
		c0,0.6308594,0.1455078,1.078125,0.4394531,1.3417969c0.2929688,0.2641602,0.7255859,0.3959961,1.2978516,0.3959961
		c0.3525391,0,0.7265625-0.0361328,1.1220703-0.1098633v3.0795898c-0.5722656,0.1171875-1.2392578,0.1757812-2.0019531,0.1757812
		c-1.3642578,0-2.4638672-0.3256836-3.2998047-0.9785156c-0.8359375-0.6523438-1.2539062-1.6459961-1.2539062-2.980957v-3.894043
		h-1.5400391v-2.9697266H348.989624z"/>
	<path fill="#383838" d="M368.5921631,21.7954102c0,0.3520508-0.0224609,0.7041016-0.0664062,1.0561523h-7.8095703
		c0.4541016,0.9975586,1.5175781,1.4960938,3.1894531,1.4960938c1.1582031,0,2.3173828-0.2050781,3.4765625-0.6162109v2.9482422
		c-1.0859375,0.4541016-2.3544922,0.6816406-3.8066406,0.6816406c-1.9941406,0-3.5751953-0.5058594-4.7412109-1.5175781
		c-1.1660156-1.012207-1.7490234-2.3686523-1.7490234-4.0703125c0-1.5981445,0.546875-2.9257812,1.6396484-3.9819336
		c1.0917969-1.0556641,2.4667969-1.5839844,4.125-1.5839844c1.6572266,0,3.0283203,0.5283203,4.1142578,1.5839844
		C368.0491943,18.8476562,368.5921631,20.1826172,368.5921631,21.7954102z M363.5540771,11.8955078l0.6601562,3.3222656h-2.75
		l-1.7607422-3.3222656H363.5540771z M362.8499756,19.199707c-1.1298828,0-1.8632812,0.4985352-2.2001953,1.4960938h4.3339844
		C364.661499,19.6982422,363.949585,19.199707,362.8499756,19.199707z"/>
	<path fill="#383838" d="M374.0823975,16.4277344v0.9897461c0.25-0.3662109,0.65625-0.659668,1.2216797-0.8798828
		c0.5644531-0.2202148,1.1474609-0.3300781,1.7490234-0.3300781c1.5400391,0,2.6757812,0.4697266,3.4101562,1.4082031
		c0.2636719-0.4106445,0.7070312-0.7480469,1.3310547-1.012207c0.6230469-0.2636719,1.25-0.3959961,1.8808594-0.3959961
		c1.4960938,0,2.6621094,0.4179688,3.4980469,1.2539062s1.2539062,1.9731445,1.2539062,3.4101562v6.2700195h-3.6962891v-5.4121094
		c0-0.8500977-0.1318359-1.4555664-0.3955078-1.8149414c-0.2646484-0.359375-0.7480469-0.5390625-1.4521484-0.5390625
		c-0.5429688,0-1.0712891,0.1396484-1.5839844,0.4179688c0.0439453,0.3378906,0.0654297,0.6967773,0.0654297,1.078125v6.2700195
		h-3.6953125v-5.4121094c0-0.8500977-0.1328125-1.4555664-0.3964844-1.8149414s-0.7480469-0.5390625-1.4521484-0.5390625
		c-0.5273438,0-1.0341797,0.1323242-1.5175781,0.3959961v7.3701172h-3.6962891V16.4277344H374.0823975z"/>
	<path fill="#383838" d="M401.8626709,21.7954102c0,0.3520508-0.0224609,0.7041016-0.0664062,1.0561523h-7.8095703
		c0.4541016,0.9975586,1.5175781,1.4960938,3.1894531,1.4960938c1.1582031,0,2.3173828-0.2050781,3.4765625-0.6162109v2.9482422
		c-1.0859375,0.4541016-2.3544922,0.6816406-3.8066406,0.6816406c-1.9941406,0-3.5751953-0.5058594-4.7412109-1.5175781
		c-1.1660156-1.012207-1.7490234-2.3686523-1.7490234-4.0703125c0-1.5981445,0.546875-2.9257812,1.6396484-3.9819336
		c1.0917969-1.0556641,2.4667969-1.5839844,4.125-1.5839844c1.6572266,0,3.0283203,0.5283203,4.1142578,1.5839844
		C401.3197021,18.8476562,401.8626709,20.1826172,401.8626709,21.7954102z M396.1204834,19.199707
		c-1.1298828,0-1.8632812,0.4985352-2.2001953,1.4960938h4.3339844
		C397.9320068,19.6982422,397.2200928,19.199707,396.1204834,19.199707z"/>
	<path fill="#383838" d="M404.5501709,17.1977539c0.7626953-0.6601562,1.8183594-0.9902344,3.1679688-0.9902344
		c1.4228516,0,2.6914062,0.2055664,3.8056641,0.6162109v2.8598633c-1.3193359-0.4106445-2.5664062-0.6162109-3.7392578-0.6162109
		c-0.6904297,0-1.0341797,0.1616211-1.0341797,0.484375c0,0.1464844,0.0878906,0.2602539,0.2636719,0.3408203
		s0.4980469,0.1723633,0.9677734,0.2749023l0.9238281,0.1982422c1.1738281,0.2495117,2.03125,0.6269531,2.5742188,1.1328125
		s0.8144531,1.2285156,0.8144531,2.1669922c0,1.1000977-0.4111328,1.9912109-1.2324219,2.6728516
		c-0.8212891,0.6821289-2.0097656,1.0229492-3.5634766,1.0229492c-1.3789062,0-2.6474609-0.2421875-3.8066406-0.7255859V23.621582
		c1.3349609,0.5576172,2.6542969,0.8359375,3.9599609,0.8359375c0.8505859,0,1.2763672-0.1904297,1.2763672-0.5717773
		c0-0.1611328-0.0810547-0.2822266-0.2421875-0.3632812c-0.1611328-0.0800781-0.4765625-0.1650391-0.9462891-0.2529297
		l-1.0332031-0.2197266c-2.2001953-0.4692383-3.3007812-1.5546875-3.3007812-3.2563477
		C403.4056396,18.7231445,403.7874756,17.8574219,404.5501709,17.1977539z"/>
	<path fill="#383838" d="M145.703476,37.7910156c0.9677734-1.0556641,2.2363281-1.5839844,3.8056641-1.5839844
		c1.144043,0,2.0239258,0.2714844,2.6401367,0.8144531v-5.0605469h3.6958008v15.1806641h-3.4316406v-0.9023438
		c-0.5576172,0.7480469-1.5258789,1.1220703-2.9042969,1.1220703c-1.5693359,0-2.8378906-0.53125-3.8056641-1.5947266
		c-0.9682617-1.0634766-1.4521484-2.3945312-1.4521484-3.9931641
		C144.2513275,40.1894531,144.7352142,38.8623047,145.703476,37.7910156z M148.6292572,43.5117188
		c0.425293,0.4541016,0.9750977,0.6816406,1.6499023,0.6816406c0.6303711,0,1.2685547-0.1904297,1.9140625-0.5722656v-3.6953125
		C151.606308,39.5585938,150.9686127,39.375,150.2791595,39.375c-0.6748047,0-1.2246094,0.2275391-1.6499023,0.6826172
		c-0.425293,0.4541016-0.6381836,1.0263672-0.6381836,1.7158203
		C147.9910736,42.4775391,148.2039642,43.0566406,148.6292572,43.5117188z"/>
	<path fill="#383838" d="M169.4100189,41.7949219c0,0.3525391-0.0219727,0.7041016-0.065918,1.0566406h-7.8100586
		c0.4545898,0.9970703,1.5180664,1.4960938,3.1899414,1.4960938c1.1586914,0,2.3173828-0.2050781,3.4760742-0.6162109v2.9482422
		c-1.0854492,0.4541016-2.3540039,0.6816406-3.8061523,0.6816406c-1.9946289,0-3.574707-0.5058594-4.7407227-1.5175781
		c-1.1660156-1.0126953-1.7490234-2.3691406-1.7490234-4.0703125c0-1.5986328,0.5463867-2.9257812,1.6391602-3.9824219
		c1.0922852-1.0556641,2.4672852-1.5839844,4.125-1.5839844c1.6572266,0,3.0283203,0.5283203,4.1137695,1.5839844
		C168.8675385,38.8476562,169.4100189,40.1826172,169.4100189,41.7949219z M163.6683197,39.1992188
		c-1.1298828,0-1.862793,0.4990234-2.2001953,1.4960938h4.3339844
		C165.4793549,39.6982422,164.7679291,39.1992188,163.6683197,39.1992188z"/>
	<path fill="#383838" d="M176.0980072,37.7910156c1.1293945-1.0556641,2.5664062-1.5839844,4.3120117-1.5839844
		c1.3051758,0,2.5004883,0.2060547,3.5859375,0.6162109v3.2119141c-1.0263672-0.4394531-2.0019531-0.6601562-2.9257812-0.6601562
		c-0.9389648,0-1.6611328,0.2246094-2.1669922,0.6708984c-0.5058594,0.4482422-0.7592773,1.0234375-0.7592773,1.7275391
		c0,0.71875,0.253418,1.2978516,0.7592773,1.7382812c0.5058594,0.4394531,1.2280273,0.6591797,2.1669922,0.6591797
		c0.8798828,0,1.8549805-0.2197266,2.9257812-0.6591797v3.2333984c-1.0854492,0.4111328-2.2807617,0.6162109-3.5859375,0.6162109
		c-1.7456055,0-3.1826172-0.53125-4.3120117-1.5947266s-1.6938477-2.3945312-1.6938477-3.9931641
		S174.9686127,38.8476562,176.0980072,37.7910156z"/>
	<path fill="#383838" d="M185.746933,41.7734375c0-1.5839844,0.5751953-2.9072266,1.7270508-3.9707031
		c1.1513672-1.0634766,2.5771484-1.5957031,4.2788086-1.5957031c1.7011719,0,3.1352539,0.5322266,4.3012695,1.5957031
		s1.7490234,2.3867188,1.7490234,3.9707031s-0.5795898,2.9111328-1.7382812,3.9814453
		c-1.1733398,1.0712891-2.6108398,1.6064453-4.3120117,1.6064453c-1.7016602,0-3.1274414-0.5351562-4.2788086-1.6064453
		C186.3221283,44.6845703,185.746933,43.3574219,185.746933,41.7734375z M190.10289,43.4892578
		c0.4106445,0.4550781,0.9604492,0.6816406,1.6499023,0.6816406s1.246582-0.2226562,1.6723633-0.6708984
		c0.4248047-0.4472656,0.6376953-1.0224609,0.6376953-1.7265625c0-0.6894531-0.2128906-1.2617188-0.6376953-1.7158203
		c-0.4257812-0.4550781-0.9829102-0.6826172-1.6723633-0.6826172c-0.6748047,0-1.2207031,0.2275391-1.6386719,0.6826172
		c-0.4179688,0.4541016-0.6274414,1.0263672-0.6274414,1.7158203
		C189.4866791,42.4775391,189.6922455,43.0498047,190.10289,43.4892578z"/>
	<path fill="#383838" d="M203.2899017,36.4277344v0.9892578c0.2490234-0.3662109,0.65625-0.6591797,1.2211914-0.8798828
		c0.5644531-0.2197266,1.1469727-0.3300781,1.7485352-0.3300781c1.5400391,0,2.6767578,0.4697266,3.4101562,1.4082031
		c0.2641602-0.4101562,0.7075195-0.7480469,1.3310547-1.0117188c0.6230469-0.2636719,1.25-0.3964844,1.8808594-0.3964844
		c1.4960938,0,2.6621094,0.4179688,3.4980469,1.2539062s1.2539062,1.9736328,1.2539062,3.4101562v6.2705078h-3.6953125v-5.4121094
		c0-0.8505859-0.1328125-1.4560547-0.3964844-1.8154297S212.793808,39.375,212.090683,39.375
		c-0.5429688,0-1.0717773,0.1396484-1.5849609,0.4179688c0.0439453,0.3378906,0.065918,0.6972656,0.065918,1.078125v6.2705078
		h-3.6958008v-5.4121094c0-0.8505859-0.1318359-1.4560547-0.3959961-1.8154297S205.7317963,39.375,205.0276947,39.375
		c-0.527832,0-1.0336914,0.1328125-1.5180664,0.3964844v7.3701172h-3.6958008V36.4277344H203.2899017z"/>
	<path fill="#383838" d="M223.5887299,36.4277344v0.9892578c0.25-0.3662109,0.65625-0.6591797,1.2216797-0.8798828
		c0.5644531-0.2197266,1.1474609-0.3300781,1.7490234-0.3300781c1.5400391,0,2.6757812,0.4697266,3.4101562,1.4082031
		c0.2636719-0.4101562,0.7070312-0.7480469,1.3310547-1.0117188c0.6230469-0.2636719,1.25-0.3964844,1.8808594-0.3964844
		c1.4960938,0,2.6621094,0.4179688,3.4980469,1.2539062s1.2539062,1.9736328,1.2539062,3.4101562v6.2705078h-3.6962891v-5.4121094
		c0-0.8505859-0.1318359-1.4560547-0.3955078-1.8154297c-0.2646484-0.359375-0.7480469-0.5390625-1.4521484-0.5390625
		c-0.5429688,0-1.0712891,0.1396484-1.5839844,0.4179688c0.0439453,0.3378906,0.0654297,0.6972656,0.0654297,1.078125v6.2705078
		h-3.6953125v-5.4121094c0-0.8505859-0.1328125-1.4560547-0.3964844-1.8154297S226.0311127,39.375,225.3270111,39.375
		c-0.5273438,0-1.0341797,0.1328125-1.5175781,0.3964844v7.3701172h-3.6962891V36.4277344H223.5887299z"/>
	<path fill="#383838" d="M240.2488861,36.4277344h3.6962891v5.8515625c0,0.6308594,0.1357422,1.1074219,0.4072266,1.4296875
		c0.2714844,0.3232422,0.7509766,0.484375,1.4404297,0.484375c0.5136719,0,0.9902344-0.1171875,1.4306641-0.3515625v-7.4140625
		h3.6953125v10.7138672h-3.453125v-0.9023438c-0.2646484,0.3378906-0.6748047,0.6083984-1.2324219,0.8144531
		c-0.5576172,0.2050781-1.1152344,0.3076172-1.671875,0.3076172c-1.4667969,0-2.5517578-0.4101562-3.2558594-1.2324219
		c-0.7041016-0.8203125-1.0566406-1.9648438-1.0566406-3.4316406V36.4277344z"/>
	<path fill="#383838" d="M256.9456787,36.4277344v0.9892578c0.25-0.3662109,0.65625-0.6591797,1.2216797-0.8798828
		c0.5644531-0.2197266,1.1474609-0.3300781,1.7490234-0.3300781c1.4658203,0,2.5517578,0.4111328,3.2558594,1.2324219
		s1.0556641,1.9658203,1.0556641,3.4316406v6.2705078h-3.6953125v-5.4121094c0-0.8505859-0.1328125-1.4560547-0.3964844-1.8154297
		S259.3880615,39.375,258.68396,39.375c-0.5273438,0-1.0341797,0.1328125-1.5175781,0.3964844v7.3701172h-3.6963043V36.4277344
		H256.9456787z"/>
	<path fill="#383838" d="M266.4036865,33.1708984c0-0.5566406,0.2050781-1.0371094,0.6152344-1.4404297
		c0.4111328-0.4033203,0.9101562-0.6054688,1.4960938-0.6054688c0.5869141,0,1.0859375,0.2021484,1.4960938,0.6054688
		c0.4111328,0.4033203,0.6162109,0.8837891,0.6162109,1.4404297c0,0.5576172-0.2050781,1.0341797-0.6162109,1.4306641
		c-0.4101562,0.4101562-0.9091797,0.6162109-1.4960938,0.6162109c-0.5859375,0-1.0849609-0.2021484-1.4960938-0.6054688
		C266.6087646,34.2089844,266.4036865,33.7285156,266.4036865,33.1708984z M266.6673584,47.1416016V36.4277344h3.6962891v10.7138672
		H266.6673584z"/>
	<path fill="#383838" d="M274.043335,37.7910156c1.1289062-1.0556641,2.5664062-1.5839844,4.3125-1.5839844
		c1.3046875,0,2.5,0.2060547,3.5859375,0.6162109v3.2119141c-1.0273438-0.4394531-2.0019531-0.6601562-2.9267578-0.6601562
		c-0.9384766,0-1.6601562,0.2246094-2.1669922,0.6708984c-0.5058594,0.4482422-0.7587891,1.0234375-0.7587891,1.7275391
		c0,0.71875,0.2529297,1.2978516,0.7587891,1.7382812c0.5068359,0.4394531,1.2285156,0.6591797,2.1669922,0.6591797
		c0.8808594,0,1.8554688-0.2197266,2.9267578-0.6591797v3.2333984c-1.0859375,0.4111328-2.28125,0.6162109-3.5859375,0.6162109
		c-1.7460938,0-3.1835938-0.53125-4.3125-1.5947266c-1.1298828-1.0634766-1.6943359-2.3945312-1.6943359-3.9931641
		S272.9134521,38.8476562,274.043335,37.7910156z"/>
	<path fill="#383838" d="M285.2366943,37.7910156c0.96875-1.0556641,2.2363281-1.5839844,3.8066406-1.5839844
		c1.3632812,0,2.3173828,0.3525391,2.859375,1.0566406v-0.8359375h3.4765625v10.7138672H291.90271v-0.8359375
		c-0.5576172,0.7041016-1.5107422,1.0556641-2.859375,1.0556641c-1.5703125,0-2.8378906-0.53125-3.8066406-1.5947266
		c-0.9677734-1.0634766-1.4521484-2.3945312-1.4521484-3.9931641
		C283.7845459,40.1894531,284.2689209,38.8623047,285.2366943,37.7910156z M288.1634521,43.5117188
		c0.4248047,0.4541016,0.9746094,0.6816406,1.6494141,0.6816406c0.6308594,0,1.2685547-0.1904297,1.9140625-0.5722656v-3.6953125
		c-0.5869141-0.3671875-1.2246094-0.5507812-1.9140625-0.5507812c-0.6748047,0-1.2246094,0.2275391-1.6494141,0.6826172
		c-0.4257812,0.4541016-0.6386719,1.0263672-0.6386719,1.7158203
		C287.5247803,42.4775391,287.7376709,43.0566406,288.1634521,43.5117188z"/>
	<path fill="#383838" d="M298.7630615,36.4277344v-2.6845703h3.6962891v2.6845703h2.859375v2.9697266h-2.859375v2.9697266
		c0,0.6308594,0.1455078,1.078125,0.4394531,1.3417969c0.2929688,0.2646484,0.7255859,0.3964844,1.2978516,0.3964844
		c0.3525391,0,0.7265625-0.0361328,1.1220703-0.1103516v3.0800781c-0.5722656,0.1171875-1.2392578,0.1757812-2.0019531,0.1757812
		c-1.3642578,0-2.4638672-0.3261719-3.2998047-0.9785156s-1.2539062-1.6464844-1.2539062-2.9814453v-3.8935547h-1.5400391
		v-2.9697266H298.7630615z"/>
	<path fill="#383838" d="M307.2484131,33.1708984c0-0.5566406,0.2050781-1.0371094,0.6152344-1.4404297
		c0.4111328-0.4033203,0.9101562-0.6054688,1.4960938-0.6054688c0.5869141,0,1.0859375,0.2021484,1.4960938,0.6054688
		c0.4111328,0.4033203,0.6162109,0.8837891,0.6162109,1.4404297c0,0.5576172-0.2050781,1.0341797-0.6162109,1.4306641
		c-0.4101562,0.4101562-0.9091797,0.6162109-1.4960938,0.6162109c-0.5859375,0-1.0849609-0.2021484-1.4960938-0.6054688
		C307.4534912,34.2089844,307.2484131,33.7285156,307.2484131,33.1708984z M307.512085,47.1416016V36.4277344h3.6962891v10.7138672
		H307.512085z"/>
	<path fill="#383838" d="M313.1947021,41.7734375c0-1.5839844,0.5761719-2.9072266,1.7275391-3.9707031
		s2.5771484-1.5957031,4.2792969-1.5957031c1.7011719,0,3.1347656,0.5322266,4.3007812,1.5957031
		s1.7490234,2.3867188,1.7490234,3.9707031s-0.5800781,2.9111328-1.7382812,3.9814453
		c-1.1738281,1.0712891-2.6103516,1.6064453-4.3115234,1.6064453c-1.7021484,0-3.1279297-0.5351562-4.2792969-1.6064453
		C313.770874,44.6845703,313.1947021,43.3574219,313.1947021,41.7734375z M317.5511475,43.4892578
		c0.4101562,0.4550781,0.9609375,0.6816406,1.6503906,0.6816406c0.6884766,0,1.2460938-0.2226562,1.671875-0.6708984
		c0.4248047-0.4472656,0.6376953-1.0224609,0.6376953-1.7265625c0-0.6894531-0.2128906-1.2617188-0.6376953-1.7158203
		c-0.4257812-0.4550781-0.9833984-0.6826172-1.671875-0.6826172c-0.6748047,0-1.2216797,0.2275391-1.6396484,0.6826172
		c-0.4179688,0.4541016-0.6269531,1.0263672-0.6269531,1.7158203
		C316.9349365,42.4775391,317.1400146,43.0498047,317.5511475,43.4892578z"/>
	<path fill="#383838" d="M330.7366943,36.4277344v0.9892578c0.25-0.3662109,0.65625-0.6591797,1.2216797-0.8798828
		c0.5644531-0.2197266,1.1474609-0.3300781,1.7490234-0.3300781c1.4658203,0,2.5517578,0.4111328,3.2558594,1.2324219
		s1.0556641,1.9658203,1.0556641,3.4316406v6.2705078h-3.6953125v-5.4121094c0-0.8505859-0.1328125-1.4560547-0.3964844-1.8154297
		S333.1790771,39.375,332.4749756,39.375c-0.5273438,0-1.0341797,0.1328125-1.5175781,0.3964844v7.3701172h-3.6962891V36.4277344
		H330.7366943z"/>
	<path fill="#383838" d="M347.8968506,47.1416016h-3.828125V32.4013672h3.828125V47.1416016z"/>
	<path fill="#383838" d="M350.6136475,36.7353516c0-1.4228516,0.5019531-2.5556641,1.5068359-3.3994141
		c1.0048828-0.8427734,2.3134766-1.2646484,3.9267578-1.2646484c1.7304688,0,3.3583984,0.2939453,4.8847656,0.8798828v3.3662109
		c-1.6435547-0.6601562-3.1904297-0.9902344-4.6425781-0.9902344c-1.2900391,0-1.9355469,0.3525391-1.9355469,1.0566406
		c0,0.3515625,0.1464844,0.6123047,0.4394531,0.7802734c0.2939453,0.1689453,0.8066406,0.3632812,1.5400391,0.5830078
		l1.078125,0.3085938c1.4228516,0.3955078,2.5009766,0.953125,3.234375,1.671875s1.0996094,1.6494141,1.0996094,2.7939453
		c0,1.5693359-0.5429688,2.7871094-1.6279297,3.6523438s-2.5595703,1.2978516-4.421875,1.2978516
		c-1.6279297,0-3.2050781-0.2939453-4.7304688-0.8798828v-3.4101562c1.6572266,0.6601562,3.2265625,0.9892578,4.7080078,0.9892578
		c0.7626953,0,1.3427734-0.1171875,1.7382812-0.3515625c0.3964844-0.234375,0.59375-0.5576172,0.59375-0.9677734
		c0-0.3818359-0.1318359-0.6523438-0.3955078-0.8144531c-0.2636719-0.1611328-0.7851562-0.34375-1.5625-0.5498047l-1.1875-0.3300781
		C352.0286865,40.3652344,350.6136475,38.8916016,350.6136475,36.7353516z"/>
	<path fill="#383838" d="M365.6497803,34.2714844c1.4960938-1.4667969,3.4765625-2.2001953,5.9404297-2.2001953
		c1.8623047,0,3.5126953,0.2861328,4.9501953,0.8583984v3.6074219c-1.4667969-0.5859375-2.9697266-0.8798828-4.5097656-0.8798828
		c-1.4667969,0-2.6113281,0.3818359-3.4326172,1.1445312s-1.2314453,1.7519531-1.2314453,2.9697266
		s0.4101562,2.2070312,1.2314453,2.9697266s1.9658203,1.1445312,3.4326172,1.1445312
		c1.5400391,0,3.0429688-0.2939453,4.5097656-0.8808594v3.6083984c-1.4375,0.5722656-3.0878906,0.8583984-4.9501953,0.8583984
		c-2.4638672,0-4.4443359-0.7373047-5.9404297-2.2109375c-1.4951172-1.4746094-2.2431641-3.3037109-2.2431641-5.4892578
		S364.1546631,35.7529297,365.6497803,34.2714844z"/>
</g>
<g>
	<polygon fill="#DD0069" points="188.6977997,60.8637695 188.6977997,69.6477661 187.0249939,69.6477661 187.0249939,65.9901733 
		182.8777924,65.9901733 182.8777924,69.6477661 181.2049866,69.6477661 181.2049866,60.8637695 182.8777924,60.8637695 
		182.8777924,64.3581696 187.0249939,64.3581696 187.0249939,60.8637695 	"/>
	<path fill="#DD0069" d="M195.9199524,69.3762512c-0.2312012,0.2040024-0.6528015,0.3807983-1.1696014,0.3807983
		c-0.5711975,0-0.9792023-0.2039948-1.1287994-0.6935959c-0.3672028,0.4759979-0.9248047,0.7335968-1.7680054,0.7335968
		c-1.183197,0-1.8768005-0.665596-1.8768005-1.6991959c0-1.0200043,0.7616119-1.822403,2.3527985-1.822403h1.1152039v-0.3527985
		c0-0.7488022-0.3672028-1.0480042-0.9248047-1.0480042c-0.5439911,0-0.8432007,0.2584076-0.9655914,0.7208023l-1.387207-0.407196
		c0.2720032-0.9935989,1.0472107-1.6872025,2.4752045-1.6872025c1.4008026,0,2.3800049,0.6936035,2.3800049,2.4616013v2.2032013
		c0,0.1632004,0.0951996,0.2584,0.2447968,0.2584c0.081604,0,0.1495972-0.0272064,0.2176056-0.0951996L195.9199524,69.3762512z
		 M193.4583588,67.3090515h-1.0880127c-0.4895935,0-0.8023987,0.2448044-0.8023987,0.6663971
		c0,0.4080048,0.2855988,0.6256027,0.7344055,0.6256027C192.96875,68.6010513,193.4583588,68.1386566,193.4583588,67.3090515"/>
	<path fill="#DD0069" d="M202.3524323,63.7192116v5.9287987h-1.5912018v-0.5711975
		c-0.4080048,0.4904022-1.0063934,0.7751999-1.8087921,0.7751999c-1.6048126,0-2.2704163-1.0744019-2.2704163-2.6384048v-3.4943962
		h1.6312103v3.3727989c0,0.8023987,0.3672028,1.3320007,1.183197,1.3320007c0.7344055,0,1.223999-0.5296021,1.223999-1.4000015
		v-3.3047981H202.3524323z"/>
	<path fill="#DD0069" d="M208.3770752,68.6824875c-0.2992096,0.6120071-0.8568115,1.1288071-1.9584045,1.1288071
		c-1.2512054,0-1.9983978-0.6664047-1.9983978-1.9312057l0.0128021-2.8143997h-1.168808v-0.3535995l2.4064026-2.2575989h0.3536072
		v1.264801h2.0127869l-0.0135956,1.3463974h-1.9584045v2.6928024c0,0.3671951,0.1768036,0.6391983,0.5848083,0.6391983
		c0.3264008,0,0.4895935-0.1231995,0.6392059-0.4087982L208.3770752,68.6824875z"/>
	<path fill="#DD0069" d="M214.5922699,67.0781708h-4.2568054c0.122406,0.8695984,0.6392059,1.4008026,1.4824066,1.4008026
		c0.6799927,0,1.0744019-0.259201,1.3463898-0.7896042l1.2920074,0.5576019
		c-0.4631958,1.0207977-1.4279938,1.5647964-2.6791992,1.5647964c-1.6999969,0-3.046402-1.0207977-3.046402-3.1415939
		c0-1.7544022,1.2104034-3.1688042,3.0599976-3.1688042c1.781601,0,2.8424072,1.2375984,2.8424072,3.0456047
		C214.6330719,66.7381744,214.6330719,66.9141693,214.5922699,67.0781708 M210.3762665,65.9629669h2.6520081
		c-0.122406-0.7479935-0.5440063-1.183197-1.264801-1.183197C211.0834656,64.7797699,210.5666656,65.1741714,210.3762665,65.9629669
		"/>
	<polygon fill="#DD0069" points="224.043869,68.1934509 224.043869,69.64785 218.890274,69.64785 218.890274,60.8638535 
		223.9078674,60.8638535 223.9078674,62.3182526 220.5622711,62.3182526 220.5622711,64.4126511 223.5814667,64.4126511 
		223.5814667,65.8806534 220.5622711,65.8806534 220.5622711,68.1934509 	"/>
	<path fill="#DD0069" d="M224.8602753,66.6426544c0-1.9576035,1.4415894-3.1416016,3.1416016-3.1416016
		c1.1143951,0,1.9983978,0.408802,2.5423889,1.441597l-1.183197,0.7888031
		c-0.2991943-0.5431976-0.7343903-0.8152008-1.3591919-0.8152008c-0.8704071,0-1.5640106,0.6391983-1.5640106,1.7264023
		c0,1.1287994,0.6936035,1.7543945,1.5640106,1.7543945c0.7207947,0,1.1143951-0.2711945,1.3999939-0.8295975l1.1696014,0.7616043
		c-0.5439911,1.0743942-1.5496063,1.4679947-2.6647949,1.4679947
		C226.1930695,69.7970505,224.8602753,68.7234497,224.8602753,66.6426544"/>
	<path fill="#DD0069" d="M231.1568298,66.6567307c0-1.7271957,1.2920074-3.1551971,3.1959991-3.1551971
		c1.9992065,0,3.1959991,1.359993,3.1959991,3.1551971c0,1.7264023-1.3055878,3.1543961-3.1959991,3.1543961
		C232.3264313,69.8111267,231.1568298,68.4511261,231.1568298,66.6567307 M235.9712372,66.6567307
		c0-1.0064011-0.6528015-1.7679977-1.6184082-1.7679977c-0.9792023,0-1.6183929,0.7751999-1.6183929,1.781601
		c0,0.9783936,0.6391907,1.7399979,1.6183929,1.7399979C235.3184357,68.4103317,235.9712372,67.6215286,235.9712372,66.6567307"/>
	<rect x="238.7593994" y="60.4144897" fill="#DD0069" width="1.6456054" height="9.2335997"/>
	<path fill="#DD0069" d="M247.4903412,67.0781708h-4.2568054c0.122406,0.8695984,0.6392059,1.4008026,1.4824066,1.4008026
		c0.6800079,0,1.0744019-0.259201,1.3463898-0.7896042l1.2920074,0.5576019
		c-0.4631958,1.0207977-1.4279938,1.5647964-2.6791992,1.5647964c-1.6999969,0-3.046402-1.0207977-3.046402-3.1415939
		c0-1.7544022,1.2104034-3.1688042,3.0599976-3.1688042c1.7816162,0,2.8424072,1.2375984,2.8424072,3.0456047
		C247.5311432,66.7381744,247.5311432,66.9141693,247.4903412,67.0781708 M243.274353,65.9629669h2.6519928
		c-0.122406-0.7479935-0.5440063-1.183197-1.264801-1.183197C243.9815369,64.7797699,243.4647369,65.1741714,243.274353,65.9629669"
		/>
	<path fill="#DD0069" d="M257.4995422,60.4146538v9.2336006h-1.5639801v-0.7888031
		c-0.4488068,0.6256027-1.1424103,0.9520035-1.9992065,0.9520035c-1.6455994,0-2.8287964-1.2520065-2.8143921-3.1688004
		c0-1.8624039,1.2231903-3.1416016,2.8279877-3.1416016c0.8159943,0,1.4687958,0.2584,1.904007,0.8023987v-3.8887978H257.4995422z
		 M255.9219513,66.6426544c0-0.9920044-0.6392059-1.7264023-1.5912018-1.7264023
		c-0.9792023,0-1.6320038,0.7343979-1.6320038,1.7264023c0,1.0335999,0.6392059,1.7543945,1.6320038,1.7543945
		C255.2691498,68.397049,255.9219513,67.6762543,255.9219513,66.6426544"/>
	<polygon fill="#DD0069" points="259.0774841,60.3192101 260.8726807,60.3192101 259.82547,63.365612 258.6422729,63.2160149 	"/>
	<rect x="262.1506042" y="60.86409" fill="#DD0069" width="1.6728027" height="8.7839994"/>
	<path fill="#DD0069" d="M271.3985901,66.1262512V69.64785h-1.6319885v-3.3319931
		c0-0.8424072-0.4216003-1.4000015-1.2512207-1.4000015c-0.815979,0-1.2783813,0.6119995-1.2783813,1.4143982V69.64785h-1.6448059
		v-5.9287987h1.5231934v0.6664009c0.407196-0.5575981,1.0328064-0.8839989,1.9440002-0.8839989
		C270.6233826,63.5014534,271.3985901,64.5622559,271.3985901,66.1262512"/>
	<path fill="#DD0069" d="M278.2662659,64.9840927h-1.0736084c0.2032166,0.3255997,0.325592,0.6927948,0.325592,1.0743942
		c0,0.6520081-0.3119812,1.1968079-0.9519653,1.7000046l-0.7064209,0.5976028
		c-0.122406,0.0951996-0.2319946,0.176796-0.3671875,0.2311935h0.734375c1.3048096,0,1.9848022,0.6391983,1.9848022,1.7128067
		c0,1.2375946-1.1151733,2.0951996-3.0183716,2.0951996c-1.4416199,0-2.3800049-0.4080048-2.8696289-1.3328018l1.1424255-0.8703995
		c0.3263855,0.5983963,0.8023987,0.8975983,1.7135925,0.8975983c1.019989,0,1.5231934-0.2312012,1.5231934-0.7071991
		c0-0.3672028-0.244812-0.5304031-0.6400146-0.5304031h-2.2295837v-0.9927979l0.8432007-0.7208023
		c-1.305603-0.1223984-2.1488037-0.9104004-2.1488037-2.1623993c0-1.305603,1.0335999-2.2567978,2.5160217-2.2567978h3.2359924
		L278.2662659,64.9840927z M275.0438843,66.9824905c0.571167,0,0.9511719-0.4487991,0.9511719-1.0064011
		c0-0.5568008-0.3671875-0.9784012-0.9511719-0.9784012c-0.6256104,0-0.9792175,0.4216003-0.9792175,0.9784012
		C274.0646667,66.5616913,274.4318542,66.9824905,275.0438843,66.9824905"/>
	<path fill="#DD0069" d="M284.712677,67.0779266h-4.256012c0.122406,0.8704071,0.6392212,1.4008026,1.4823914,1.4008026
		c0.6800232,0,1.0744019-0.2584,1.346405-0.7895966l1.2919922,0.5583954
		c-0.4631958,1.0200043-1.4279785,1.564003-2.6791992,1.564003c-1.6999817,0-3.0463867-1.0207977-3.0463867-3.1416016
		c0-1.7536011,1.2103882-3.1687965,3.0599976-3.1687965c1.7816162,0,2.8424072,1.2375984,2.8424072,3.0463982
		C284.7542725,66.7379303,284.7542725,66.9147339,284.712677,67.0779266 M280.497467,65.9627304h2.6520081
		c-0.122406-0.7472-0.5440063-1.1823959-1.264801-1.1823959C281.2046509,64.7803345,280.6878662,65.1739349,280.497467,65.9627304
		 M282.0614624,63.0395317l-1.2103882-0.2991982l1.019989-2.3936005h2.0400085L282.0614624,63.0395317z"/>
	<path fill="#DD0069" d="M291.7712402,66.1262512V69.64785h-1.632019v-3.3319931
		c0-0.8424072-0.4207764-1.4000015-1.2511902-1.4000015c-0.8151855,0-1.2775879,0.6119995-1.2775879,1.4143982V69.64785h-1.6455994
		v-5.9287987h1.5231934v0.6664009c0.4079895-0.5575981,1.0335999-0.8839989,1.9447937-0.8839989
		C290.9960327,63.5014534,291.7712402,64.5622559,291.7712402,66.1262512"/>
	<path fill="#DD0069" d="M293.0498047,61.6664925c0-0.5992012,0.4768066-1.0752029,1.0879822-1.0752029
		c0.5984192,0,1.0880127,0.4760017,1.0880127,1.0752029c0,0.6111984-0.4895935,1.1007996-1.0880127,1.1007996
		C293.5266113,62.767292,293.0498047,62.2776909,293.0498047,61.6664925 M293.3089905,63.7192917h1.6455994v5.9287949h-1.6455994
		V63.7192917z"/>
	<path fill="#DD0069" d="M302.0395508,67.0781708h-4.2568054c0.122406,0.8695984,0.6391907,1.4008026,1.4823914,1.4008026
		c0.6800232,0,1.0744019-0.259201,1.346405-0.7896042l1.2920227,0.5576019
		c-0.4631958,1.0207977-1.428009,1.5647964-2.6791992,1.5647964c-1.7000122,0-3.0464172-1.0207977-3.0464172-3.1415939
		c0-1.7544022,1.2104187-3.1688042,3.0599976-3.1688042c1.7816162,0,2.8424072,1.2375984,2.8424072,3.0456047
		C302.0803528,66.7381744,302.0803528,66.9141693,302.0395508,67.0781708 M297.8235474,65.9629669h2.6520081
		c-0.122406-0.7479935-0.5440063-1.183197-1.264801-1.183197C298.5307617,64.7797699,298.0139465,65.1741714,297.8235474,65.9629669
		"/>
	<path fill="#DD0069" d="M306.7723389,63.5692101v1.6184044c-1.0471802,0-1.8359985,0.6391983-1.8359985,1.7951965v2.6656036
		h-1.6455994V63.718811h1.6047974v0.8983994C305.2763367,63.9780121,305.8747559,63.5692101,306.7723389,63.5692101"/>
	<path fill="#DD0069" d="M307.5338135,61.6664925c0-0.5992012,0.4767761-1.0752029,1.0879822-1.0752029
		c0.5984192,0,1.0880127,0.4760017,1.0880127,1.0752029c0,0.6111984-0.4895935,1.1007996-1.0880127,1.1007996
		C308.0105896,62.767292,307.5338135,62.2776909,307.5338135,61.6664925 M307.7929993,63.7192917h1.6455994v5.9287949h-1.6455994
		V63.7192917z"/>
	<path fill="#DD0069" d="M316.5235596,67.0781708h-4.2568054c0.122406,0.8695984,0.6391907,1.4008026,1.4823914,1.4008026
		c0.6799927,0,1.0744019-0.259201,1.346405-0.7896042l1.2919922,0.5576019
		c-0.4631958,1.0207977-1.428009,1.5647964-2.6791992,1.5647964c-1.6999817,0-3.0463867-1.0207977-3.0463867-3.1415939
		c0-1.7544022,1.2103882-3.1688042,3.0599976-3.1688042c1.7815857,0,2.8424072,1.2375984,2.8424072,3.0456047
		C316.5643616,66.7381744,316.5643616,66.9141693,316.5235596,67.0781708 M312.3075562,65.9629669h2.6519775
		c-0.1223755-0.7479935-0.5439758-1.183197-1.2647705-1.183197C313.01474,64.7797699,312.4979553,65.1741714,312.3075562,65.9629669
		"/>
	<polygon fill="#DD0069" points="188.6977997,76.8637695 188.6977997,85.6477737 187.0249939,85.6477737 187.0249939,81.9901733 
		182.8777924,81.9901733 182.8777924,85.6477737 181.2049866,85.6477737 181.2049866,76.8637695 182.8777924,76.8637695 
		182.8777924,80.3581696 187.0249939,80.3581696 187.0249939,76.8637695 	"/>
	<path fill="#DD0069" d="M189.9763489,82.6567307c0-1.7271957,1.2920074-3.1551971,3.1959991-3.1551971
		c1.9992065,0,3.1959991,1.3600006,3.1959991,3.1551971c0,1.7264023-1.3055878,3.1544037-3.1959991,3.1544037
		C191.1459503,85.8111343,189.9763489,84.4511337,189.9763489,82.6567307 M194.7907562,82.6567307
		c0-1.0064011-0.6528015-1.7679977-1.6184082-1.7679977c-0.979187,0-1.6183929,0.7751999-1.6183929,1.781601
		c0,0.9784012,0.6392059,1.7399979,1.6183929,1.7399979C194.1379547,84.4103317,194.7907562,83.6215286,194.7907562,82.6567307"/>
	<path fill="#DD0069" d="M197.1849213,82.6426468c0-1.9575958,1.4415894-3.1415939,3.1415863-3.1415939
		c1.1144104,0,1.9983978,0.4087982,2.5424042,1.441597l-1.183197,0.7888031
		c-0.2991943-0.5432053-0.7344055-0.8152008-1.3592072-0.8152008c-0.8703918,0-1.5639954,0.6391983-1.5639954,1.7263947
		c0,1.1288071,0.6936035,1.7544022,1.5639954,1.7544022c0.7208099,0,1.1144104-0.2712021,1.4000092-0.8295975l1.1696014,0.7615967
		c-0.5440063,1.0744019-1.5496063,1.4680023-2.6648102,1.4680023
		C198.5177155,85.7970505,197.1849213,84.7234497,197.1849213,82.6426468"/>
	<path fill="#DD0069" d="M209.7231598,82.1536102v3.4944h-1.6320038v-3.3448029
		c0-0.8023987-0.4352112-1.3871994-1.2512054-1.3871994c-0.8023987,0-1.264801,0.6119995-1.264801,1.4000015v3.3320007h-1.6448059
		v-9.2335968h1.6448059v3.2368011l-0.0271912,0.6255951c0.3943939-0.4896011,0.9927979-0.7751999,1.8359985-0.7751999
		C208.9479523,79.5016098,209.7231598,80.5896072,209.7231598,82.1536102"/>
	<path fill="#DD0069" d="M210.7708282,84.1934509l1.2784119-0.476799c0.2039948,0.6128006,0.5575867,0.8295975,1.183197,0.8295975
		c0.5575867,0,0.8703918-0.2032013,0.8703918-0.5839996c0-0.3671951-0.2175903-0.5303955-1.2104034-0.7343979
		c-1.2919922-0.2720032-1.8767853-0.8432007-1.8767853-1.8504028c0-1.1551971,0.9247894-1.8759995,2.1895905-1.8759995
		c1.1696014,0,1.8768005,0.4216003,2.1623993,1.4143982l-1.2919922,0.4760056
		c-0.163208-0.4080048-0.3807983-0.6391983-0.8840027-0.6391983c-0.4352112,0-0.6936035,0.217598-0.6936035,0.5167999
		c0,0.3399963,0.2176056,0.5031967,1.223999,0.7071991c1.3600006,0.2855988,1.863205,0.8567963,1.863205,1.9311981
		c-0.0144043,1.1559982-0.9384003,1.9031982-2.3936005,1.9031982
		C211.8588257,85.8110504,211.056427,85.3086548,210.7708282,84.1934509"/>
	<path fill="#DD0069" d="M216.4009094,82.6426468c0-1.9575958,1.4416046-3.1415939,3.1416016-3.1415939
		c1.1143951,0,1.9983978,0.4087982,2.5424042,1.441597l-1.183197,0.7888031
		c-0.2992096-0.5432053-0.7344055-0.8152008-1.3592072-0.8152008c-0.8704071,0-1.5640106,0.6391983-1.5640106,1.7263947
		c0,1.1288071,0.6936035,1.7544022,1.5640106,1.7544022c0.7207947,0,1.1143951-0.2712021,1.3999939-0.8295975l1.1696014,0.7615967
		c-0.5439911,1.0744019-1.5495911,1.4680023-2.6647949,1.4680023
		C217.7337036,85.7970505,216.4009094,84.7234497,216.4009094,82.6426468"/>
	<path fill="#DD0069" d="M228.9395599,82.1536102v3.4944h-1.6320038v-3.3448029
		c0-0.8023987-0.4352112-1.3871994-1.2512054-1.3871994c-0.8023987,0-1.264801,0.6119995-1.264801,1.4000015v3.3320007h-1.6448059
		v-9.2335968h1.6448059v3.2368011l-0.0271912,0.6255951c0.3943939-0.4896011,0.9927979-0.7751999,1.8359985-0.7751999
		C228.1643524,79.5016098,228.9395599,80.5896072,228.9395599,82.1536102"/>
	<path fill="#DD0069" d="M236.0657196,79.7192078v5.9288025h-1.591217v-0.5711975
		c-0.4079895,0.4904022-1.0063934,0.7751999-1.8087769,0.7751999c-1.6040039,0-2.2704163-1.0744019-2.2704163-2.6384048v-3.4944
		h1.6320038v3.3728027c0,0.8023987,0.3672028,1.3320007,1.1832123,1.3320007c0.7343903,0,1.2231903-0.5296021,1.2231903-1.4000015
		v-3.3048019H236.0657196z"/>
	<rect x="237.6985931" y="76.4144897" fill="#DD0069" width="1.6456054" height="9.2335997"/>
	<path fill="#DD0069" d="M246.4293823,83.0781708h-4.2568054c0.122406,0.8695984,0.6392059,1.4008026,1.4824066,1.4008026
		c0.6799927,0,1.0744019-0.259201,1.3463898-0.7896042l1.2920074,0.5576019
		c-0.4631958,1.0207977-1.428009,1.5647964-2.6791992,1.5647964c-1.6999969,0-3.046402-1.0207977-3.046402-3.1415939
		c0-1.7544022,1.2104034-3.1688004,3.0599976-3.1688004c1.781601,0,2.8424072,1.2375946,2.8424072,3.0456009
		C246.4701843,82.7381744,246.4701843,82.9141693,246.4293823,83.0781708 M242.2133942,81.9629669h2.6519775
		c-0.1223907-0.7479935-0.5439911-1.183197-1.2647858-1.183197
		C242.920578,80.7797699,242.4037781,81.1741714,242.2133942,81.9629669"/>
	<path fill="#DD0069" d="M252.575882,79.7192078h1.5503845v1.346405h-1.5503845v4.5823975h-1.6456146v-4.5823975h-0.923996
		v-1.346405h0.923996v-1.1151962c0-1.4408035,0.8975983-2.2984009,2.2576141-2.2984009
		c0.8295898,0,1.4552002,0.299202,1.8631897,0.9255981l-1.0608063,0.9240036
		c-0.1360016-0.2584-0.3535919-0.3944016-0.6663971-0.3944016c-0.4759979,0-0.7479858,0.3127975-0.7479858,0.9112015V79.7192078z"/>
	<path fill="#DD0069" d="M260.6669922,79.719368v5.9288025h-1.5903931V85.076973
		c-0.40802,0.4896011-1.0064087,0.7751999-1.8088074,0.7751999c-1.6040039,0-2.270401-1.0744019-2.270401-2.6384048v-3.4944
		h1.6312103v3.3728027c0,0.8023987,0.3671875,1.3320007,1.183197,1.3320007c0.7344055,0,1.223999-0.5296021,1.223999-1.4000015
		V79.719368H260.6669922z M255.4181976,77.6793671c0.0135956-0.5711975,0.4759979-1.0335999,1.0335846-1.0335999
		c0.571228,0,1.0336304,0.4624023,1.0336304,1.0335999c0,0.5576019-0.4624023,1.0192032-1.0336304,1.0192032
		C255.8941956,78.6985703,255.4317932,78.236969,255.4181976,77.6793671 M258.3150024,77.6793671
		c0-0.5711975,0.4624023-1.0335999,1.0335999-1.0335999c0.5575867,0,1.019989,0.4624023,1.019989,1.0335999
		c0,0.5576019-0.4624023,1.0192032-1.019989,1.0192032C258.7774048,78.6985703,258.3150024,78.236969,258.3150024,77.6793671"/>
	<path fill="#DD0069" d="M265.7817993,79.5692139v1.6184006c-1.0472107,0-1.8359985,0.6391983-1.8359985,1.7951965v2.6656036
		h-1.6455994V79.718811h1.6047974v0.8983994C264.2857971,79.9780121,264.8841858,79.5692139,265.7817993,79.5692139"/>
	<rect x="269.5897827" y="76.86409" fill="#DD0069" width="1.6728027" height="8.7839994"/>
	<path fill="#DD0069" d="M278.836853,82.1262512V85.64785h-1.632019v-3.3320007
		c0-0.8423996-0.4208069-1.4000015-1.2511902-1.4000015c-0.8152161,0-1.2776184,0.6119995-1.2776184,1.4144058V85.64785h-1.6455994
		v-5.9288025h1.5232239v0.6664047c0.4079895-0.5576019,1.0335693-0.8840027,1.9447937-0.8840027
		C278.0616455,79.5014496,278.836853,80.5622482,278.836853,82.1262512"/>
	<path fill="#DD0069" d="M285.7053223,80.9840927h-1.0744019c0.2039795,0.3255997,0.3263855,0.6927948,0.3263855,1.0744019
		c0,0.6520004-0.3128052,1.1968002-0.9519958,1.6999969l-0.7072144,0.5976028
		c-0.1223755,0.0951996-0.2312012,0.176796-0.3671875,0.2311935h0.7344055c1.305603,0,1.9855957,0.6392059,1.9855957,1.7128067
		c0,1.2375946-1.1152039,2.0951996-3.0191956,2.0951996c-1.4415894,0-2.3800049-0.4080048-2.8688049-1.3328018l1.1416016-0.8703995
		c0.3272095,0.5983963,0.8023987,0.8975983,1.7135925,0.8975983c1.0200195,0,1.5231934-0.2312012,1.5231934-0.7071991
		c0-0.3672028-0.2447815-0.5304031-0.6391907-0.5304031h-2.2303772v-0.9927979l0.8439941-0.7208023
		c-1.305603-0.1223984-2.1495972-0.9104004-2.1495972-2.1623993c0-1.3055954,1.0335693-2.2567978,2.5159912-2.2567978h3.2367859
		L285.7053223,80.9840927z M282.4821167,82.9824905c0.5711975,0,0.9519958-0.4487991,0.9519958-1.0064011
		c0-0.5568008-0.367218-0.9784012-0.9519958-0.9784012c-0.6256104,0-0.9792175,0.4216003-0.9792175,0.9784012
		C281.5028992,82.5616913,281.8701172,82.9824905,282.4821167,82.9824905"/>
	<path fill="#DD0069" d="M292.1520386,83.0781708h-4.2568054c0.122406,0.8695984,0.6391907,1.4008026,1.4823914,1.4008026
		c0.6799927,0,1.0744019-0.259201,1.346405-0.7896042l1.2919922,0.5576019
		c-0.4631958,1.0207977-1.428009,1.5647964-2.6791992,1.5647964c-1.6999817,0-3.0463867-1.0207977-3.0463867-3.1415939
		c0-1.7544022,1.2103882-3.1688004,3.0599976-3.1688004c1.7815857,0,2.8424072,1.2375946,2.8424072,3.0456009
		C292.1928406,82.7381744,292.1928406,82.9141693,292.1520386,83.0781708 M287.9360352,81.9629669h2.6519775
		c-0.1223755-0.7479935-0.5439758-1.183197-1.2647705-1.183197
		C288.643219,80.7797699,288.1264343,81.1741714,287.9360352,81.9629669"/>
	<path fill="#DD0069" d="M299.2094727,82.1262512V85.64785h-1.632019v-3.3320007
		c0-0.8423996-0.4207764-1.4000015-1.2511902-1.4000015c-0.8151855,0-1.2775879,0.6119995-1.2775879,1.4144058V85.64785h-1.6455994
		v-5.9288025h1.5231934v0.6664047c0.4079895-0.5576019,1.0335999-0.8840027,1.9447937-0.8840027
		C298.4342651,79.5014496,299.2094727,80.5622482,299.2094727,82.1262512"/>
	<path fill="#DD0069" d="M300.4890137,77.6664886c0-0.5991974,0.4759827-1.0751953,1.0879822-1.0751953
		c0.5984192,0,1.0871887,0.4759979,1.0871887,1.0751953c0,0.6111984-0.4887695,1.1007996-1.0871887,1.1007996
		C300.9649963,78.7672882,300.4890137,78.2776871,300.4890137,77.6664886 M300.747406,79.7192917h1.6455994v5.9287949h-1.6455994
		V79.7192917z"/>
	<path fill="#DD0069" d="M309.4781799,83.0781708h-4.2568054c0.122406,0.8695984,0.6392212,1.4008026,1.4824219,1.4008026
		c0.6799927,0,1.0744019-0.259201,1.3463745-0.7896042l1.2920227,0.5576019
		c-0.4631958,1.0207977-1.428009,1.5647964-2.6791992,1.5647964c-1.7000122,0-3.0464172-1.0207977-3.0464172-3.1415939
		c0-1.7544022,1.2104187-3.1688004,3.0599976-3.1688004c1.7816162,0,2.8424072,1.2375946,2.8424072,3.0456009
		C309.5189819,82.7381744,309.5189819,82.9141693,309.4781799,83.0781708 M305.262207,81.9629669h2.6519775
		c-0.122406-0.7479935-0.5440063-1.183197-1.264801-1.183197C305.9693909,80.7797699,305.4525757,81.1741714,305.262207,81.9629669"
		/>
	<path fill="#DD0069" d="M316.3188477,79.7192078v5.9288025h-1.591217v-0.5711975
		c-0.4079895,0.4904022-1.0064087,0.7751999-1.8088074,0.7751999c-1.6047974,0-2.2703857-1.0744019-2.2703857-2.6384048v-3.4944
		h1.6311951v3.3728027c0,0.8023987,0.3671875,1.3320007,1.183197,1.3320007c0.7344055,0,1.223999-0.5296021,1.223999-1.4000015
		v-3.3048019H316.3188477z"/>
	<path fill="#DD0069" d="M321.4325256,79.5692139v1.6184006c-1.0472107,0-1.8360291,0.6391983-1.8360291,1.7951965v2.6656036
		h-1.6455688V79.718811h1.6047974v0.8983994C319.9365234,79.9780121,320.5349121,79.5692139,321.4325256,79.5692139"/>
	<polygon fill="#DD0069" points="331.1149902,79.7192078 328.6134033,85.8112106 327.9053955,85.8112106 326.4237976,82.5344086 
		324.8734131,85.8112106 324.1525879,85.8112106 321.6637878,79.7192078 323.4182129,79.7192078 324.6829834,83.2408142 
		326.3150024,79.6368103 326.5733948,79.6368103 328.1646118,83.2408142 329.4693909,79.7192078 	"/>
	<path fill="#DD0069" d="M331.6737976,77.6664886c0-0.5991974,0.4759827-1.0751953,1.0879822-1.0751953
		c0.5984192,0,1.0872192,0.4759979,1.0872192,1.0751953c0,0.6111984-0.4888,1.1007996-1.0872192,1.1007996
		C332.1497803,78.7672882,331.6737976,78.2776871,331.6737976,77.6664886 M331.9321899,79.7192917h1.6456299v5.9287949h-1.6456299
		V79.7192917z"/>
	<path fill="#DD0069" d="M334.7059631,84.1934509l1.2783813-0.476799c0.20401,0.6128006,0.5575867,0.8295975,1.183197,0.8295975
		c0.5576172,0,0.8703918-0.2032013,0.8703918-0.5839996c0-0.3671951-0.2175903-0.5303955-1.2103882-0.7343979
		c-1.2919922-0.2720032-1.8768005-0.8432007-1.8768005-1.8504028c0-1.1551971,0.9248047-1.8759995,2.1896057-1.8759995
		c1.1695862,0,1.8768005,0.4216003,2.162384,1.4143982l-1.2919922,0.4760056
		c-0.163208-0.4080048-0.3807983-0.6391983-0.8840027-0.6391983c-0.4351807,0-0.693573,0.217598-0.693573,0.5167999
		c0,0.3399963,0.2175903,0.5031967,1.223999,0.7071991c1.3599854,0.2855988,1.8631592,0.8567963,1.8631592,1.9311981
		c-0.0143738,1.1559982-0.938385,1.9031982-2.3935852,1.9031982
		C335.7939453,85.8110504,334.9915466,85.3086548,334.7059631,84.1934509"/>
	<path fill="#DD0069" d="M340.2411499,84.1934509l1.2784119-0.476799c0.20401,0.6128006,0.5575867,0.8295975,1.183197,0.8295975
		c0.5575867,0,0.8703918-0.2032013,0.8703918-0.5839996c0-0.3671951-0.2176208-0.5303955-1.2104187-0.7343979
		c-1.2919922-0.2720032-1.87677-0.8432007-1.87677-1.8504028c0-1.1551971,0.9247742-1.8759995,2.1896057-1.8759995
		c1.1695862,0,1.87677,0.4216003,2.162384,1.4143982l-1.2919922,0.4760056
		c-0.163208-0.4080048-0.3807983-0.6391983-0.8840332-0.6391983c-0.4351807,0-0.693573,0.217598-0.693573,0.5167999
		c0,0.3399963,0.2176208,0.5031967,1.223999,0.7071991c1.3599854,0.2855988,1.8631897,0.8567963,1.8631897,1.9311981
		c-0.0143738,1.1559982-0.9384155,1.9031982-2.3936157,1.9031982
		C341.3291626,85.8110504,340.5267639,85.3086548,340.2411499,84.1934509"/>
	<path fill="#DD0069" d="M351.7329102,83.0781708h-4.2568054c0.122406,0.8695984,0.6391907,1.4008026,1.4823914,1.4008026
		c0.6799927,0,1.0744019-0.259201,1.346405-0.7896042l1.2919922,0.5576019
		c-0.4631653,1.0207977-1.428009,1.5647964-2.6791992,1.5647964c-1.6999817,0-3.0463867-1.0207977-3.0463867-3.1415939
		c0-1.7544022,1.2104187-3.1688004,3.0599976-3.1688004c1.7816162,0,2.8424072,1.2375946,2.8424072,3.0456009
		C351.7737122,82.7381744,351.7737122,82.9141693,351.7329102,83.0781708 M347.5169067,81.9629669h2.6519775
		c-0.1223755-0.7479935-0.5439758-1.183197-1.2647705-1.183197
		C348.2240906,80.7797699,347.7073059,81.1741714,347.5169067,81.9629669"/>
	<path fill="#DD0069" d="M358.790741,82.1262512V85.64785h-1.6319885v-3.3320007
		c0-0.8423996-0.4208069-1.4000015-1.2512207-1.4000015c-0.8151855,0-1.2775879,0.6119995-1.2775879,1.4144058V85.64785h-1.6456299
		v-5.9288025h1.5232239v0.6664047c0.4079895-0.5576019,1.0335999-0.8840027,1.9447937-0.8840027
		C358.0155334,79.5014496,358.790741,80.5622482,358.790741,82.1262512"/>
	<path fill="#DD0069" d="M359.8384399,84.1934509l1.2783813-0.476799c0.20401,0.6128006,0.5575867,0.8295975,1.183197,0.8295975
		c0.5575867,0,0.8703918-0.2032013,0.8703918-0.5839996c0-0.3671951-0.2175903-0.5303955-1.2103882-0.7343979
		c-1.2919922-0.2720032-1.8768005-0.8432007-1.8768005-1.8504028c0-1.1551971,0.9247742-1.8759995,2.1896057-1.8759995
		c1.1695862,0,1.87677,0.4216003,2.162384,1.4143982l-1.2919922,0.4760056
		c-0.163208-0.4080048-0.3807983-0.6391983-0.8840027-0.6391983c-0.4351807,0-0.6936035,0.217598-0.6936035,0.5167999
		c0,0.3399963,0.2176208,0.5031967,1.223999,0.7071991c1.3599854,0.2855988,1.8631897,0.8567963,1.8631897,1.9311981
		c-0.0143738,1.1559982-0.938385,1.9031982-2.3935852,1.9031982
		C360.9264221,85.8110504,360.1240234,85.3086548,359.8384399,84.1934509"/>
	<path fill="#DD0069" d="M365.4688416,82.6426468c0-1.9575958,1.4415894-3.1415939,3.141571-3.1415939
		c1.1144104,0,1.9992371,0.4087982,2.5424194,1.441597l-1.183197,0.7888031
		c-0.2984009-0.5432053-0.7336121-0.8152008-1.3592224-0.8152008c-0.8703613,0-1.5639648,0.6391983-1.5639648,1.7263947
		c0,1.1288071,0.6936035,1.7544022,1.5639648,1.7544022c0.7200317,0,1.1144104-0.2712021,1.4008179-0.8295975l1.1696167,0.7615967
		c-0.5447998,1.0744019-1.5512085,1.4680023-2.6656189,1.4680023
		C366.8016357,85.7970505,365.4688416,84.7234497,365.4688416,82.6426468"/>
	<path fill="#DD0069" d="M378.0071411,82.1536102v3.4944h-1.6319885v-3.3448029
		c0-0.8023987-0.4352112-1.3871994-1.2511902-1.3871994c-0.8016357,0-1.2648315,0.6119995-1.2648315,1.4000015v3.3320007h-1.6448059
		v-9.2335968h1.6448059v3.2368011l-0.0271912,0.6255951c0.3944092-0.4896011,0.9927979-0.7751999,1.8359985-0.7751999
		C377.2319336,79.5016098,378.0071411,80.5896072,378.0071411,82.1536102"/>
	<path fill="#DD0069" d="M385.0515442,85.3762512c-0.2312012,0.2040024-0.6520081,0.3807983-1.1696167,0.3807983
		c-0.5711975,0-0.9783936-0.2040024-1.1279907-0.6935959c-0.3671875,0.4759979-0.9248047,0.7335968-1.7680054,0.7335968
		c-1.1824036,0-1.8768005-0.665596-1.8768005-1.6992035c0-1.0199966,0.7623901-1.8223953,2.3528137-1.8223953h1.1144104v-0.3527985
		c0-0.7488022-0.367218-1.0480042-0.9240112-1.0480042c-0.5447998,0-0.8432007,0.2584-0.9656067,0.7208023l-1.387207-0.4072037
		c0.2727966-0.9935989,1.0472107-1.6871948,2.4743958-1.6871948c1.4008179,0,2.3807983,0.6935959,2.3807983,2.4616013v2.2031937
		c0,0.1632004,0.0944214,0.2584,0.244812,0.2584c0.0808105,0,0.1488037-0.0271988,0.2167969-0.0951996L385.0515442,85.3762512z
		 M382.5907593,83.3090515h-1.0880127c-0.489624,0-0.8023987,0.2447968-0.8023987,0.6663971
		c0,0.4080048,0.2855835,0.6256027,0.7344055,0.6256027C382.1011353,84.6010513,382.5907593,84.138649,382.5907593,83.3090515"/>
	<path fill="#DD0069" d="M387.9625854,79.7192078h1.5495911v1.346405h-1.5495911v4.5823975h-1.6455994v-4.5823975h-0.9248047
		v-1.346405h0.9248047v-1.1151962c0-1.4408035,0.897583-2.2984009,2.2575989-2.2984009
		c0.8295898,0,1.4552002,0.299202,1.8632202,0.9255981l-1.0608215,0.9240036
		c-0.1359863-0.2584-0.3536072-0.3944016-0.6656189-0.3944016c-0.4767761,0-0.7487793,0.3127975-0.7487793,0.9112015V79.7192078z"/>
	<path fill="#DD0069" d="M394.8571472,84.6824875c-0.2992249,0.6120071-0.8568115,1.1288071-1.9584045,1.1288071
		c-1.2512207,0-1.9984131-0.6664047-1.9984131-1.9312057l0.0128174-2.8143997h-1.1696167v-0.3535995l2.407196-2.2575989h0.3544312
		v1.264801h2.0119934l-0.0136108,1.3463974h-1.9584045v2.6928024c0,0.3672028,0.1768188,0.6391983,0.5848083,0.6391983
		c0.326416,0,0.4895935-0.1231995,0.6391907-0.4087982L394.8571472,84.6824875z"/>
	<path fill="#DD0069" d="M401.0723267,83.0781708h-4.2568054c0.12323,0.8695984,0.6392212,1.4008026,1.4823914,1.4008026
		c0.6800232,0,1.0744324-0.259201,1.3456116-0.7896042l1.2928162,0.5576019
		c-0.4631958,1.0207977-1.4288025,1.5647964-2.6791992,1.5647964c-1.7000122,0-3.0463867-1.0207977-3.0463867-3.1415939
		c0-1.7544022,1.2103882-3.1688004,3.059967-3.1688004c1.7816162,0,2.8416138,1.2375946,2.8416138,3.0456009
		C401.1123352,82.7381744,401.1123352,82.9141693,401.0723267,83.0781708 M396.8563538,81.9629669h2.6511841
		c-0.1216125-0.7479935-0.5432129-1.183197-1.2640076-1.183197
		C397.5635376,80.7797699,397.0467224,81.1741714,396.8563538,81.9629669"/>
	<path fill="#DD0069" d="M408.1305847,82.1262512V85.64785h-1.6319885v-3.3320007
		c0-0.8423996-0.4208069-1.4000015-1.2512207-1.4000015c-0.8151855,0-1.2775879,0.6119995-1.2775879,1.4144058V85.64785h-1.6456299
		v-5.9288025h1.5232239v0.6664047c0.407196-0.5576019,1.0335999-0.8840027,1.9440002-0.8840027
		C407.3553772,79.5014496,408.1305847,80.5622482,408.1305847,82.1262512"/>
	<path fill="#DD0069" d="M145.1308289,83.8328934c0,1.0447998,0.8471985,1.8927994,1.8919983,1.8927994h20.9840088
		c1.0447998,0,1.8919983-0.8479996,1.8919983-1.8927994V62.8504906c0-1.0455971-0.8471985-1.8927994-1.8919983-1.8927994
		h-20.9840088c-1.0447998,0-1.8919983,0.8472023-1.8919983,1.8927994V83.8328934z"/>
	<path fill="#FFFFFF" d="M158.8794708,68.8354492h-2.8600006c-0.142395,1.6576004-0.2783966,3.0680008-0.4104004,4.1264038
		c-0.1335907,1.0591965-0.259201,1.8647995-0.3800049,2.6271973c-0.1287994,0.7615967-0.2567902,1.4560013-0.3879852,2.0823975
		c-0.1088104,0.4896011-0.2616119,0.8688049-0.4736023,1.1440048c-0.2071991,0.2759933-0.5120087,0.4671936-0.9120026,0.5751953
		c-0.3343964,0.081604-0.6623993,0.0152054-0.9911957-0.1976013c-0.322403-0.2143936-0.5160065-0.4703979-0.5856018-0.7679977
		c-0.0487976-0.2208023-0.0624084-0.4079971-0.0359955-0.5607986c0.019989-0.1536026,0.0655975-0.2952042,0.1351929-0.4263992
		c0.0671997-0.1320038,0.1399994-0.2504044,0.2247925-0.3600006c0.0776062-0.1063995,0.1656036-0.2127991,0.2552032-0.3208008
		c0.0296021-0.0327988,0.1719971-0.2015991,0.4320068-0.5056c0.2615967-0.305603,0.453598-0.5839996,0.5879974-0.8359985
		c0.1295929-0.2503967,0.4160004-0.8031998,0.5592041-1.4912033c0.1455994-0.6879959,0.4391937-3.0415955,0.4335938-5.0887985
		h-1.2032013c-0.3399963,0-0.6712036,0.1112061-0.9823914,0.2736053c-0.3040009,0.159996-0.5720062,0.4295959-0.6928101,0.5831985
		c-0.1271973,0.1583939-0.4552002,0.688797-0.5343933,0.7911987c-0.076004,0.1024017-0.2320099,0.3384018-0.3511963,0.3023987
		c-0.1296082-0.040802-0.1016083-0.1864014-0.0808105-0.3023987c0.0223999-0.1160049,0.2568054-0.7088013,0.4320068-1.1544037
		c0.1799927-0.4504013,0.418396-0.8847961,0.7231903-1.3048019c0.2352142-0.3575974,0.5608063-0.6095963,0.9632111-0.865593
		c0.407196-0.2624054,0.8743896-0.3920059,1.412796-0.3920059h8.7615967c0.1528015,0,0.9759979,0.0656052,0.9759979,1.0264053
		c0,0.9599991-0.8743896,1.0423965-0.9759979,1.0423965h-2.4879913c-0.2080078,1.9720001-0.3104095,4.0064011-0.3104095,6.0016022
		c0,0.3616028,0.0599976,0.717598,0.1856079,1.0615997c0.1248016,0.3479996,0.2767944,0.6111984,0.4575958,0.7895966
		c0.2344055,0.2168045,0.5144043,0.3544006,0.8495941,0.4176025c0.3376007,0.0607986,0.6768036-0.0431976,1.0216064-0.3143997
		c0.1896057-0.1503983,0.3271942-0.3191986,0.418396-0.5056c0.0848083-0.1912003,0.1399994-0.3751984,0.1656036-0.546402
		c0.0231934-0.1744003,0.0615997-0.4191971,0.0688019-0.4776001c0.0063934-0.0591965-0.0048065-0.2751999,0.240799-0.2943954
		c0.2456055-0.0184021,0.270401,0.1991959,0.2935944,0.435997c0.0200043,0.2368011-0.1055908,1.1167984-0.3040009,1.6640015
		c-0.1976013,0.5503998-0.4367981,0.9896011-0.7079926,1.3223953c-0.2743988,0.3367996-0.540802,0.5768051-0.8032074,0.723999
		c-0.2991943,0.1808014-0.647995,0.2904053-1.0415955,0.328804c-0.3999939,0.0367966-0.7640076-0.0559998-1.0919952-0.2776031
		c-0.5447998-0.3983994-0.9616089-1.0199966-1.239212-1.8671951c-0.1623993-0.4960022-0.2455902-1.1480026-0.2639923-1.9616013
		c-0.0247955-0.8120041,0.0023956-1.6047974,0.0776062-2.3799973L158.8794708,68.8354492z"/>
</g>
<g>
</g>
<g>
</g>
<g>
</g>
<g>
</g>
<g>
</g>
<g>
</g>
</svg>
