<?xml version="1.0" encoding="utf-8"?>
<!-- Generator: Adobe Illustrator 27.7.0, SVG Export Plug-In . SVG Version: 6.00 Build 0)  -->
<!DOCTYPE svg [
	<!ENTITY ns_extend "http://ns.adobe.com/Extensibility/1.0/">
	<!ENTITY ns_ai "http://ns.adobe.com/AdobeIllustrator/10.0/">
	<!ENTITY ns_graphs "http://ns.adobe.com/Graphs/1.0/">
	<!ENTITY ns_vars "http://ns.adobe.com/Variables/1.0/">
	<!ENTITY ns_imrep "http://ns.adobe.com/ImageReplacement/1.0/">
	<!ENTITY ns_sfw "http://ns.adobe.com/SaveForWeb/1.0/">
	<!ENTITY ns_custom "http://ns.adobe.com/GenericCustomNamespace/1.0/">
	<!ENTITY ns_adobe_xpath "http://ns.adobe.com/XPath/1.0/">
]>
<svg version="1.2" baseProfile="tiny" xmlns:x="&ns_extend;" xmlns:i="&ns_ai;" xmlns:graph="&ns_graphs;"
	 xmlns="http://www.w3.org/2000/svg" xmlns:xlink="http://www.w3.org/1999/xlink" x="0px" y="0px" viewBox="0 0 431.0039368 97"
	 overflow="visible" xml:space="preserve">
<metadata>
	<sfw  xmlns="&ns_sfw;">
		<slices></slices>
		<sliceSourceBounds  bottomLeftOrigin="true" height="76.9537192" width="388.6579874" x="-32.5202921" y="-357.7256918">
			</sliceSourceBounds>
	</sfw>
</metadata>
<g id="Calque_1">
	<g>
		<g>
			<linearGradient id="SVGID_1_" gradientUnits="userSpaceOnUse" x1="86.7692032" y1="67.3477936" x2="9.8169785" y2="67.3477936">
				<stop  offset="0" style="stop-color:#FFFFFF"/>
				<stop  offset="0.3006249" style="stop-color:#FDFADD"/>
				<stop  offset="0.7672719" style="stop-color:#FBF4AD"/>
				<stop  offset="1" style="stop-color:#FAF19B"/>
			</linearGradient>
			<path fill="url(#SVGID_1_)" d="M68.3920517,85.7256927H28.1948795c-10.1498718,0-18.3779011-8.2280273-18.3779011-18.3778992
				s8.2280293-18.377903,18.3779011-18.377903h40.1971741c10.1498718,0,18.3771515,8.2280273,18.3771515,18.377903
				S78.5419235,85.7256927,68.3920517,85.7256927z"/>
		</g>
		<g>
			
				<linearGradient id="SVGID_00000036214869085008470860000012192821804798159030_" gradientUnits="userSpaceOnUse" x1="81.387291" y1="80.3430405" x2="26.9729748" y2="25.9287186">
				<stop  offset="0" style="stop-color:#FFFFFF"/>
				<stop  offset="0.0288237" style="stop-color:#FAFDFE"/>
				<stop  offset="0.4987828" style="stop-color:#ADE1F2"/>
				<stop  offset="0.8338945" style="stop-color:#7DCFEB"/>
				<stop  offset="1" style="stop-color:#6BC8E8"/>
			</linearGradient>
			<path fill="url(#SVGID_00000036214869085008470860000012192821804798159030_)" d="M68.3920517,85.7256927
				c-4.7036552,0-9.4065628-1.7939682-12.9952469-5.3826523l-28.42383-28.4238319
				c-7.1766224-7.177372-7.1766224-18.813118,0-25.99049c7.1773739-7.177372,18.8131199-7.177372,25.9904919,0L81.387291,54.3525467
				c7.1766281,7.177372,7.1766281,18.813118,0,25.9904938C77.7986069,83.9317245,73.0957031,85.7256927,68.3920517,85.7256927z"/>
		</g>
		<g>
			
				<linearGradient id="SVGID_00000159457811037993990380000018146574370263028608_" gradientUnits="userSpaceOnUse" x1="68.3916779" y1="85.7256927" x2="68.3916779" y2="8.7719727">
				<stop  offset="0" style="stop-color:#FFFFFF"/>
				<stop  offset="0.35574" style="stop-color:#E0D3E7"/>
				<stop  offset="0.7855465" style="stop-color:#BFA3CD"/>
				<stop  offset="1" style="stop-color:#B291C3"/>
			</linearGradient>
			<path fill="url(#SVGID_00000159457811037993990380000018146574370263028608_)" d="M68.3920517,85.7256927
				c-10.1498756,0-18.377903-8.2280273-18.377903-18.3778992V27.1498737c0-10.1498718,8.2280273-18.3779011,18.377903-18.3779011
				s18.3771515,8.2280293,18.3771515,18.3779011v40.1979218C86.7692032,77.4976654,78.5419235,85.7256927,68.3920517,85.7256927z"/>
		</g>
		<g>
			
				<linearGradient id="SVGID_00000028308113303230384310000001494885296641209741_" gradientUnits="userSpaceOnUse" x1="55.3969917" y1="80.3432236" x2="109.8116837" y2="25.9285316">
				<stop  offset="0" style="stop-color:#FFFFFF"/>
				<stop  offset="0.1786221" style="stop-color:#FDEEF1"/>
				<stop  offset="0.726818" style="stop-color:#F6BECB"/>
				<stop  offset="1" style="stop-color:#F4ACBC"/>
			</linearGradient>
			<path fill="url(#SVGID_00000028308113303230384310000001494885296641209741_)" d="M68.3920517,85.7256927
				c-4.7036552,0-9.4065628-1.7939682-12.9952469-5.3826523c-7.1766243-7.1773758-7.1766243-18.8138695,0-25.9904938
				l28.4245758-28.4238281c7.1773682-7.1766243,18.813118-7.1766243,25.9904861,0
				c7.1773758,7.177372,7.1773758,18.8138657,0,25.99049L81.387291,80.3430405
				C77.7986069,83.9309769,73.0949554,85.7256927,68.3920517,85.7256927z"/>
		</g>
		<g>
			
				<linearGradient id="SVGID_00000058561550442533821010000012161322751654546859_" gradientUnits="userSpaceOnUse" x1="50.0137749" y1="67.3477936" x2="126.9674911" y2="67.3477936">
				<stop  offset="0" style="stop-color:#FFFFFF"/>
				<stop  offset="0.4283046" style="stop-color:#C2E5E1"/>
				<stop  offset="0.8105035" style="stop-color:#92D0C9"/>
				<stop  offset="1" style="stop-color:#80C8C0"/>
			</linearGradient>
			<path fill="url(#SVGID_00000058561550442533821010000012161322751654546859_)" d="M108.589592,85.7256927H68.3916779
				c-10.1498756,0-18.377903-8.2280273-18.377903-18.3778992s8.2280273-18.377903,18.377903-18.377903h40.1979141
				c10.1491241,0,18.3778992,8.2280273,18.3778992,18.377903S118.7387161,85.7256927,108.589592,85.7256927z"/>
		</g>
		<circle fill="#FFFFFF" cx="68.3916779" cy="67.3477936" r="18.3779011"/>
	</g>
	<g id="_x3C_Calque_x3E_">
	</g>
	<g>
		<path fill="#383838" d="M146.5833588,14.2714844c1.4960938-1.4663086,3.4760742-2.199707,5.9399414-2.199707
			c1.8623047,0,3.512207,0.2856445,4.9501953,0.8579102v3.6079102c-1.4667969-0.5864258-2.9702148-0.8798828-4.5102539-0.8798828
			c-1.4667969,0-2.6108398,0.3813477-3.4321289,1.144043s-1.2319336,1.7524414-1.2319336,2.9697266
			c0,1.2177734,0.4106445,2.2075195,1.2319336,2.9702148s1.965332,1.144043,3.4321289,1.144043
			c1.5400391,0,3.043457-0.293457,4.5102539-0.8803711v3.6083984c-1.4379883,0.5717773-3.0878906,0.8579102-4.9501953,0.8579102
			c-2.4638672,0-4.4438477-0.7373047-5.9399414-2.2109375c-1.4960938-1.4741211-2.2441406-3.3037109-2.2441406-5.4892578
			C144.3392181,17.5864258,145.087265,15.7529297,146.5833588,14.2714844z"/>
		<path fill="#383838" d="M158.8831635,21.7734375c0-1.5839844,0.5751953-2.9072266,1.7270508-3.9707031
			c1.1513672-1.0634766,2.5771484-1.5952148,4.2788086-1.5952148c1.7011719,0,3.1352539,0.5317383,4.3012695,1.5952148
			s1.7490234,2.3867188,1.7490234,3.9707031s-0.5795898,2.9116211-1.7382812,3.9819336
			c-1.1733398,1.0708008-2.6108398,1.605957-4.3120117,1.605957c-1.7016602,0-3.1274414-0.5351562-4.2788086-1.605957
			C159.4583588,24.6850586,158.8831635,23.3574219,158.8831635,21.7734375z M163.2391205,23.4897461
			c0.4106445,0.4545898,0.9604492,0.6816406,1.6499023,0.6816406s1.246582-0.2231445,1.6723633-0.6708984
			c0.4248047-0.4472656,0.6376953-1.0229492,0.6376953-1.7270508c0-0.6889648-0.2128906-1.2612305-0.6376953-1.7158203
			c-0.4257812-0.4545898-0.9829102-0.6821289-1.6723633-0.6821289c-0.6748047,0-1.2207031,0.2275391-1.6386719,0.6821289
			s-0.6274414,1.0268555-0.6274414,1.7158203C162.6229095,22.4775391,162.828476,23.0498047,163.2391205,23.4897461z"/>
		<path fill="#383838" d="M176.4261322,16.4277344v0.9897461c0.2490234-0.3662109,0.65625-0.659668,1.2211914-0.8798828
			c0.5644531-0.2202148,1.1469727-0.3300781,1.7485352-0.3300781c1.5400391,0,2.6767578,0.4697266,3.4101562,1.4082031
			c0.2641602-0.4106445,0.7075195-0.7480469,1.3310547-1.012207c0.6230469-0.2636719,1.2504883-0.3959961,1.8808594-0.3959961
			c1.4960938,0,2.6621094,0.4179688,3.4980469,1.2539062s1.2539062,1.9731445,1.2539062,3.4101562v6.2700195h-3.6958008v-5.4121094
			c0-0.8500977-0.1318359-1.4555664-0.3959961-1.8149414s-0.7480469-0.5390625-1.4521484-0.5390625
			c-0.5424805,0-1.0708008,0.1396484-1.5839844,0.4179688c0.0439453,0.3378906,0.065918,0.6967773,0.065918,1.078125v6.2700195
			h-3.6958008v-5.4121094c0-0.8500977-0.1318359-1.4555664-0.3959961-1.8149414s-0.7480469-0.5390625-1.4521484-0.5390625
			c-0.527832,0-1.0336914,0.1323242-1.5180664,0.3959961v7.3701172h-3.6958008V16.4277344H176.4261322z"/>
		<path fill="#383838" d="M196.7254486,16.4277344v0.8359375c0.5571289-0.7041016,1.5102539-1.0561523,2.8598633-1.0561523
			c1.5693359,0,2.8378906,0.5317383,3.8061523,1.5952148c0.9677734,1.0634766,1.4521484,2.3945312,1.4521484,3.9926758
			c0,1.5839844-0.484375,2.9082031-1.4521484,3.9711914c-0.9682617,1.0634766-2.2368164,1.5947266-3.8061523,1.5947266
			c-1.144043,0-2.0239258-0.2714844-2.6401367-0.8139648v4.9936523h-3.6958008V16.4277344H196.7254486z M198.8152924,24.1933594
			c0.6743164,0,1.2246094-0.2270508,1.6499023-0.6816406s0.6381836-1.0263672,0.6381836-1.7163086
			c0-0.7036133-0.2128906-1.2832031-0.6381836-1.737793s-0.9755859-0.6821289-1.6499023-0.6821289
			c-0.6308594,0-1.2685547,0.190918-1.9140625,0.5722656v3.6958008
			C197.4876556,24.0102539,198.1258392,24.1933594,198.8152924,24.1933594z"/>
		<path fill="#383838" d="M206.8011322,16.4277344h3.6958008v5.8520508c0,0.6303711,0.1357422,1.1074219,0.4072266,1.4296875
			c0.2709961,0.3227539,0.7509766,0.4838867,1.4404297,0.4838867c0.5136719,0,0.9902344-0.1171875,1.4306641-0.3515625v-7.4140625
			h3.6953125v10.7138672h-3.453125v-0.9018555c-0.2646484,0.3374023-0.6748047,0.6083984-1.2324219,0.8139648
			c-0.5576172,0.2050781-1.1142578,0.3076172-1.671875,0.3076172c-1.4667969,0-2.5522461-0.4101562-3.2563477-1.2319336
			c-0.7036133-0.8208008-1.0556641-1.9648438-1.0556641-3.4316406V16.4277344z"/>
		<path fill="#383838" d="M220.8436127,16.4277344v-2.684082h3.6962891v2.684082h2.859375v2.9697266h-2.859375v2.9702148
			c0,0.6308594,0.1455078,1.078125,0.4394531,1.3417969c0.2929688,0.2641602,0.7255859,0.3959961,1.2978516,0.3959961
			c0.3525391,0,0.7265625-0.0361328,1.1220703-0.1098633v3.0795898c-0.5722656,0.1171875-1.2392578,0.1757812-2.0019531,0.1757812
			c-1.3642578,0-2.4638672-0.3256836-3.2998047-0.9785156c-0.8359375-0.6523438-1.2539062-1.6459961-1.2539062-2.980957v-3.894043
			h-1.5400391v-2.9697266H220.8436127z"/>
		<path fill="#383838" d="M240.4461517,21.7954102c0,0.3520508-0.0224609,0.7041016-0.0664062,1.0561523h-7.8095703
			c0.4541016,0.9975586,1.5175781,1.4960938,3.1894531,1.4960938c1.1582031,0,2.3173828-0.2050781,3.4765625-0.6162109v2.9482422
			c-1.0859375,0.4541016-2.3544922,0.6816406-3.8066406,0.6816406c-1.9941406,0-3.5751953-0.5058594-4.7412109-1.5175781
			c-1.1660156-1.012207-1.7490234-2.3686523-1.7490234-4.0703125c0-1.5981445,0.546875-2.9257812,1.6396484-3.9819336
			c1.0917969-1.0556641,2.4667969-1.5839844,4.125-1.5839844c1.6572266,0,3.0283203,0.5283203,4.1142578,1.5839844
			C239.903183,18.8476562,240.4461517,20.1826172,240.4461517,21.7954102z M234.7039642,19.199707
			c-1.1298828,0-1.8632812,0.4985352-2.2001953,1.4960938h4.3339844
			C236.5154877,19.6982422,235.8035736,19.199707,234.7039642,19.199707z"/>
		<path fill="#383838" d="M242.4608002,16.4277344h3.4755859v1.1000977
			c0.2207031-0.3959961,0.5644531-0.6967773,1.0341797-0.9023438c0.4697266-0.2050781,0.96875-0.3081055,1.4960938-0.3081055
			c0.3662109,0,0.7480469,0.0444336,1.1445312,0.1323242v3.3217773c-0.4697266-0.0439453-0.9316406-0.065918-1.3867188-0.065918
			c-0.8359375,0-1.5253906,0.1098633-2.0673828,0.3300781v7.105957h-3.6962891V16.4277344z"/>
		<path fill="#383838" d="M255.7044525,17.1977539c0.7627106-0.6601562,1.8183746-0.9902344,3.167984-0.9902344
			c1.4228516,0,2.6914062,0.2055664,3.8056641,0.6162109v2.8598633c-1.3193359-0.4106445-2.5664062-0.6162109-3.7392578-0.6162109
			c-0.6904297,0-1.0341797,0.1616211-1.0341797,0.484375c0,0.1464844,0.0878906,0.2602539,0.2636719,0.3408203
			s0.4980469,0.1723633,0.9677734,0.2749023l0.9238281,0.1982422c1.1738281,0.2495117,2.03125,0.6269531,2.5742188,1.1328125
			s0.8144531,1.2285156,0.8144531,2.1669922c0,1.1000977-0.4111328,1.9912109-1.2324219,2.6728516
			c-0.8212891,0.6821289-2.0097656,1.0229492-3.5634766,1.0229492c-1.3789062,0-2.6474609-0.2421875-3.8066559-0.7255859V23.621582
			c1.3349762,0.5576172,2.6543121,0.8359375,3.9599762,0.8359375c0.8505859,0,1.2763672-0.1904297,1.2763672-0.5717773
			c0-0.1611328-0.0810547-0.2822266-0.2421875-0.3632812c-0.1611328-0.0800781-0.4765625-0.1650391-0.9462891-0.2529297
			l-1.0332031-0.2197266c-2.2002106-0.4692383-3.3007965-1.5546875-3.3007965-3.2563477
			C254.5599213,18.7231445,254.9417572,17.8574219,255.7044525,17.1977539z"/>
		<path fill="#383838" d="M266.5081787,17.7915039c1.1289062-1.0556641,2.5664062-1.5839844,4.3125-1.5839844
			c1.3046875,0,2.5,0.2055664,3.5859375,0.6162109v3.2119141c-1.0273438-0.4399414-2.0019531-0.6601562-2.9267578-0.6601562
			c-0.9384766,0-1.6601562,0.2241211-2.1669922,0.6708984c-0.5058594,0.4477539-0.7587891,1.0234375-0.7587891,1.7270508
			c0,0.71875,0.2529297,1.2983398,0.7587891,1.7382812c0.5068359,0.4399414,1.2285156,0.659668,2.1669922,0.659668
			c0.8808594,0,1.8554688-0.2197266,2.9267578-0.659668v3.2338867c-1.0859375,0.4106445-2.28125,0.6157227-3.5859375,0.6157227
			c-1.7460938,0-3.1835938-0.53125-4.3125-1.5947266c-1.1298828-1.0629883-1.6943359-2.394043-1.6943359-3.9931641
			C264.8138428,20.175293,265.3782959,18.8476562,266.5081787,17.7915039z"/>
		<path fill="#383838" d="M276.5648193,13.1713867c0-0.5571289,0.2050781-1.0371094,0.6152344-1.440918
			c0.4111328-0.4033203,0.9101562-0.6049805,1.4960938-0.6049805c0.5869141,0,1.0859375,0.2016602,1.4960938,0.6049805
			c0.4111328,0.4038086,0.6162109,0.8837891,0.6162109,1.440918c0,0.5576172-0.2050781,1.0341797-0.6162109,1.4301758
			c-0.4101562,0.4106445-0.9091797,0.6162109-1.4960938,0.6162109c-0.5859375,0-1.0849609-0.2016602-1.4960938-0.6049805
			C276.7698975,14.2094727,276.5648193,13.7290039,276.5648193,13.1713867z M276.8284912,27.1416016V16.4277344h3.6962891
			v10.7138672H276.8284912z"/>
		<path fill="#383838" d="M294.0179443,21.7954102c0,0.3520508-0.0224609,0.7041016-0.0664062,1.0561523h-7.8095703
			c0.4541016,0.9975586,1.5175781,1.4960938,3.1894531,1.4960938c1.1582031,0,2.3173828-0.2050781,3.4765625-0.6162109v2.9482422
			c-1.0859375,0.4541016-2.3544922,0.6816406-3.8066406,0.6816406c-1.9941406,0-3.5751953-0.5058594-4.7412109-1.5175781
			c-1.1660156-1.012207-1.7490234-2.3686523-1.7490234-4.0703125c0-1.5981445,0.546875-2.9257812,1.6396484-3.9819336
			c1.0917969-1.0556641,2.4667969-1.5839844,4.125-1.5839844c1.6572266,0,3.0283203,0.5283203,4.1142578,1.5839844
			C293.4749756,18.8476562,294.0179443,20.1826172,294.0179443,21.7954102z M288.2757568,19.199707
			c-1.1298828,0-1.8632812,0.4985352-2.2001953,1.4960938h4.3339844
			C290.0872803,19.6982422,289.3753662,19.199707,288.2757568,19.199707z"/>
		<path fill="#383838" d="M299.5081787,16.4277344v0.9897461c0.25-0.3662109,0.65625-0.659668,1.2216797-0.8798828
			c0.5644531-0.2202148,1.1474609-0.3300781,1.7490234-0.3300781c1.4658203,0,2.5517578,0.4106445,3.2558594,1.2319336
			c0.7041016,0.8217773,1.0556641,1.9658203,1.0556641,3.4321289v6.2700195h-3.6953125v-5.4121094
			c0-0.8500977-0.1328125-1.4555664-0.3964844-1.8149414s-0.7480469-0.5390625-1.4521484-0.5390625
			c-0.5273438,0-1.0341797,0.1323242-1.5175781,0.3959961v7.3701172h-3.6962891V16.4277344H299.5081787z"/>
		<path fill="#383838" d="M310.40271,17.7915039c1.1289062-1.0556641,2.5664062-1.5839844,4.3125-1.5839844
			c1.3046875,0,2.5,0.2055664,3.5859375,0.6162109v3.2119141c-1.0273438-0.4399414-2.0019531-0.6601562-2.9267578-0.6601562
			c-0.9384766,0-1.6601562,0.2241211-2.1669922,0.6708984c-0.5058594,0.4477539-0.7587891,1.0234375-0.7587891,1.7270508
			c0,0.71875,0.2529297,1.2983398,0.7587891,1.7382812c0.5068359,0.4399414,1.2285156,0.659668,2.1669922,0.659668
			c0.8808594,0,1.8554688-0.2197266,2.9267578-0.659668v3.2338867c-1.0859375,0.4106445-2.28125,0.6157227-3.5859375,0.6157227
			c-1.7460938,0-3.1835938-0.53125-4.3125-1.5947266c-1.1298828-1.0629883-1.6943359-2.394043-1.6943359-3.9931641
			C308.708374,20.175293,309.2728271,18.8476562,310.40271,17.7915039z"/>
		<path fill="#383838" d="M331.6068115,21.7954102c0,0.3520508-0.0224609,0.7041016-0.0664062,1.0561523h-7.8095703
			c0.4541016,0.9975586,1.5175781,1.4960938,3.1894531,1.4960938c1.1582031,0,2.3173828-0.2050781,3.4765625-0.6162109v2.9482422
			c-1.0859375,0.4541016-2.3544922,0.6816406-3.8066406,0.6816406c-1.9941406,0-3.5751953-0.5058594-4.7412109-1.5175781
			c-1.1660156-1.012207-1.7490234-2.3686523-1.7490234-4.0703125c0-1.5981445,0.546875-2.9257812,1.6396484-3.9819336
			c1.0917969-1.0556641,2.4667969-1.5839844,4.125-1.5839844c1.6572266,0,3.0283203,0.5283203,4.1142578,1.5839844
			C331.0638428,18.8476562,331.6068115,20.1826172,331.6068115,21.7954102z M325.864624,19.199707
			c-1.1298828,0-1.8632812,0.4985352-2.2001953,1.4960938h4.3339844
			C327.6761475,19.6982422,326.9642334,19.199707,325.864624,19.199707z"/>
		<path fill="#383838" d="M338.0511475,17.7915039c0.96875-1.0556641,2.2363281-1.5839844,3.8066406-1.5839844
			c1.3632812,0,2.3173828,0.3520508,2.859375,1.0561523v-0.8359375h3.4765625v10.7138672h-3.4765625v-0.8359375
			c-0.5576172,0.7041016-1.5107422,1.0556641-2.859375,1.0556641c-1.5703125,0-2.8378906-0.53125-3.8066406-1.5947266
			c-0.9677734-1.0629883-1.4521484-2.394043-1.4521484-3.9931641
			C336.598999,20.1894531,337.083374,18.8623047,338.0511475,17.7915039z M340.9779053,23.5117188
			c0.4248047,0.4545898,0.9746094,0.6816406,1.6494141,0.6816406c0.6308594,0,1.2685547-0.1904297,1.9140625-0.5717773v-3.6958008
			c-0.5869141-0.3666992-1.2246094-0.550293-1.9140625-0.550293c-0.6748047,0-1.2246094,0.2275391-1.6494141,0.6821289
			c-0.4257812,0.4545898-0.6386719,1.0268555-0.6386719,1.7158203
			C340.3392334,22.4775391,340.552124,23.0571289,340.9779053,23.5117188z"/>
		<path fill="#383838" d="M354.2318115,16.4277344v0.9897461c0.25-0.3662109,0.65625-0.659668,1.2216797-0.8798828
			c0.5644531-0.2202148,1.1474609-0.3300781,1.7490234-0.3300781c1.4658203,0,2.5517578,0.4106445,3.2558594,1.2319336
			c0.7041016,0.8217773,1.0556641,1.9658203,1.0556641,3.4321289v6.2700195h-3.6953125v-5.4121094
			c0-0.8500977-0.1328125-1.4555664-0.3964844-1.8149414s-0.7480469-0.5390625-1.4521484-0.5390625
			c-0.5273438,0-1.0341797,0.1323242-1.5175781,0.3959961v7.3701172h-3.6962891V16.4277344H354.2318115z"/>
		<path fill="#383838" d="M364.9241943,17.7915039c0.96875-1.0556641,2.2363281-1.5839844,3.8066406-1.5839844
			c1.1435547,0,2.0234375,0.2714844,2.6396484,0.8139648v-5.0600586h3.6962891v15.1801758h-3.4326172v-0.9018555
			c-0.5576172,0.7480469-1.5253906,1.121582-2.9033203,1.121582c-1.5703125,0-2.8378906-0.53125-3.8066406-1.5947266
			c-0.9677734-1.0629883-1.4521484-2.394043-1.4521484-3.9931641
			C363.4720459,20.1894531,363.9564209,18.8623047,364.9241943,17.7915039z M367.8509521,23.5117188
			c0.4248047,0.4545898,0.9746094,0.6816406,1.6494141,0.6816406c0.6308594,0,1.2685547-0.1904297,1.9140625-0.5717773v-3.6958008
			c-0.5869141-0.3666992-1.2246094-0.550293-1.9140625-0.550293c-0.6748047,0-1.2246094,0.2275391-1.6494141,0.6821289
			c-0.4257812,0.4545898-0.6386719,1.0268555-0.6386719,1.7158203
			C367.2122803,22.4775391,367.4251709,23.0571289,367.8509521,23.5117188z"/>
		<path fill="#383838" d="M145.9451752,37.7910156c1.1293945-1.0556641,2.5664062-1.5839844,4.3120117-1.5839844
			c1.3051758,0,2.5004883,0.2060547,3.5859375,0.6162109v3.2119141c-1.0263672-0.4394531-2.0019531-0.6601562-2.9257812-0.6601562
			c-0.9389648,0-1.6611328,0.2246094-2.1669922,0.6708984c-0.5058594,0.4482422-0.7592773,1.0234375-0.7592773,1.7275391
			c0,0.71875,0.253418,1.2978516,0.7592773,1.7382812c0.5058594,0.4394531,1.2280273,0.6591797,2.1669922,0.6591797
			c0.8798828,0,1.8549805-0.2197266,2.9257812-0.6591797v3.2333984c-1.0854492,0.4111328-2.2807617,0.6162109-3.5859375,0.6162109
			c-1.7456055,0-3.1826172-0.53125-4.3120117-1.5947266s-1.6938477-2.3945312-1.6938477-3.9931641
			S144.8157806,38.8476562,145.9451752,37.7910156z"/>
		<path fill="#383838" d="M155.5945892,41.7734375c0-1.5839844,0.5751953-2.9072266,1.7270508-3.9707031
			c1.1513672-1.0634766,2.5771484-1.5957031,4.2788086-1.5957031c1.7011719,0,3.1352539,0.5322266,4.3012695,1.5957031
			s1.7490234,2.3867188,1.7490234,3.9707031s-0.5795898,2.9111328-1.7382812,3.9814453
			c-1.1733398,1.0712891-2.6108398,1.6064453-4.3120117,1.6064453c-1.7016602,0-3.1274414-0.5351562-4.2788086-1.6064453
			C156.1697845,44.6845703,155.5945892,43.3574219,155.5945892,41.7734375z M159.9505463,43.4892578
			c0.4106445,0.4550781,0.9604492,0.6816406,1.6499023,0.6816406s1.246582-0.2226562,1.6723633-0.6708984
			c0.4248047-0.4472656,0.6376953-1.0224609,0.6376953-1.7265625c0-0.6894531-0.2128906-1.2617188-0.6376953-1.7158203
			c-0.4257812-0.4550781-0.9829102-0.6826172-1.6723633-0.6826172c-0.6748047,0-1.2207031,0.2275391-1.6386719,0.6826172
			c-0.4179688,0.4541016-0.6274414,1.0263672-0.6274414,1.7158203
			C159.3343353,42.4775391,159.5399017,43.0498047,159.9505463,43.4892578z"/>
		<path fill="#383838" d="M173.1370697,36.4277344v0.9892578c0.2490234-0.3662109,0.65625-0.6591797,1.2211914-0.8798828
			c0.5644531-0.2197266,1.1469727-0.3300781,1.7485352-0.3300781c1.5400391,0,2.6767578,0.4697266,3.4101562,1.4082031
			c0.2641602-0.4101562,0.7075195-0.7480469,1.3310547-1.0117188c0.6230469-0.2636719,1.2504883-0.3964844,1.8808594-0.3964844
			c1.4960938,0,2.6621094,0.4179688,3.4980469,1.2539062s1.2539062,1.9736328,1.2539062,3.4101562v6.2705078h-3.6958008v-5.4121094
			c0-0.8505859-0.1318359-1.4560547-0.3959961-1.8154297S182.640976,39.375,181.9368744,39.375
			c-0.5424805,0-1.0708008,0.1396484-1.5839844,0.4179688c0.0439453,0.3378906,0.065918,0.6972656,0.065918,1.078125v6.2705078
			h-3.6958008v-5.4121094c0-0.8505859-0.1318359-1.4560547-0.3959961-1.8154297S175.5789642,39.375,174.8748627,39.375
			c-0.527832,0-1.0336914,0.1328125-1.5180664,0.3964844v7.3701172h-3.6958008V36.4277344H173.1370697z"/>
		<path fill="#383838" d="M193.4363861,36.4277344v0.9892578c0.2490234-0.3662109,0.65625-0.6591797,1.2211914-0.8798828
			c0.5644531-0.2197266,1.1469727-0.3300781,1.7485352-0.3300781c1.5400391,0,2.6767578,0.4697266,3.4101562,1.4082031
			c0.2641602-0.4101562,0.7075195-0.7480469,1.3310547-1.0117188c0.6230469-0.2636719,1.2504883-0.3964844,1.8808594-0.3964844
			c1.4960938,0,2.6621094,0.4179688,3.4980469,1.2539062s1.2539062,1.9736328,1.2539062,3.4101562v6.2705078h-3.6958008v-5.4121094
			c0-0.8505859-0.1318359-1.4560547-0.3959961-1.8154297S202.9402924,39.375,202.2361908,39.375
			c-0.5424805,0-1.0708008,0.1396484-1.5839844,0.4179688c0.0439453,0.3378906,0.065918,0.6972656,0.065918,1.078125v6.2705078
			h-3.6958008v-5.4121094c0-0.8505859-0.1318359-1.4560547-0.3959961-1.8154297S195.8782806,39.375,195.1741791,39.375
			c-0.527832,0-1.0336914,0.1328125-1.5180664,0.3964844v7.3701172h-3.6958008V36.4277344H193.4363861z"/>
		<path fill="#383838" d="M210.0970306,36.4277344h3.6958008v5.8515625c0,0.6308594,0.1357422,1.1074219,0.4072266,1.4296875
			c0.2714844,0.3232422,0.7509766,0.484375,1.4404297,0.484375c0.5136719,0,0.9902344-0.1171875,1.4306641-0.3515625v-7.4140625
			h3.6953125v10.7138672h-3.453125v-0.9023438c-0.2646484,0.3378906-0.6748047,0.6083984-1.2324219,0.8144531
			c-0.5576172,0.2050781-1.1152344,0.3076172-1.671875,0.3076172c-1.4667969,0-2.5527344-0.4101562-3.2563477-1.2324219
			c-0.7036133-0.8203125-1.0556641-1.9648438-1.0556641-3.4316406V36.4277344z"/>
		<path fill="#383838" d="M226.7918549,36.4277344v0.9892578c0.25-0.3662109,0.65625-0.6591797,1.2216797-0.8798828
			c0.5644531-0.2197266,1.1474609-0.3300781,1.7490234-0.3300781c1.4658203,0,2.5517578,0.4111328,3.2558594,1.2324219
			s1.0556641,1.9658203,1.0556641,3.4316406v6.2705078h-3.6953125v-5.4121094c0-0.8505859-0.1328125-1.4560547-0.3964844-1.8154297
			S229.2342377,39.375,228.5301361,39.375c-0.5273438,0-1.0341797,0.1328125-1.5175781,0.3964844v7.3701172h-3.6962891V36.4277344
			H226.7918549z"/>
		<path fill="#383838" d="M236.2508392,33.1708984c0-0.5566406,0.2050781-1.0371094,0.6152344-1.4404297
			c0.4111328-0.4033203,0.9101562-0.6054688,1.4960938-0.6054688c0.5869141,0,1.0859375,0.2021484,1.4960938,0.6054688
			c0.4111328,0.4033203,0.6162109,0.8837891,0.6162109,1.4404297c0,0.5576172-0.2050781,1.0341797-0.6162109,1.4306641
			c-0.4101562,0.4101562-0.9091797,0.6162109-1.4960938,0.6162109c-0.5859375,0-1.0849609-0.2021484-1.4960938-0.6054688
			C236.4559174,34.2089844,236.2508392,33.7285156,236.2508392,33.1708984z M236.5145111,47.1416016V36.4277344h3.6962891
			v10.7138672H236.5145111z"/>
		<path fill="#383838" d="M243.8904877,37.7910156c1.1289062-1.0556641,2.5664062-1.5839844,4.3125-1.5839844
			c1.3046875,0,2.5,0.2060547,3.5859375,0.6162109v3.2119141C250.7615814,39.5957031,249.786972,39.375,248.8621674,39.375
			c-0.9384766,0-1.6601562,0.2246094-2.1669922,0.6708984c-0.5058594,0.4482422-0.7587891,1.0234375-0.7587891,1.7275391
			c0,0.71875,0.2529297,1.2978516,0.7587891,1.7382812c0.5068359,0.4394531,1.2285156,0.6591797,2.1669922,0.6591797
			c0.8808594,0,1.8554688-0.2197266,2.9267578-0.6591797v3.2333984c-1.0859375,0.4111328-2.28125,0.6162109-3.5859375,0.6162109
			c-1.7460938,0-3.1835938-0.53125-4.3125-1.5947266c-1.1298828-1.0634766-1.6943359-2.3945312-1.6943359-3.9931641
			S242.7606049,38.8476562,243.8904877,37.7910156z"/>
		<path fill="#383838" d="M255.0843353,37.7910156c0.9687653-1.0556641,2.2363434-1.5839844,3.8066559-1.5839844
			c1.3632812,0,2.3173828,0.3525391,2.859375,1.0566406v-0.8359375h3.4765625v10.7138672h-3.4765625v-0.8359375
			c-0.5576172,0.7041016-1.5107422,1.0556641-2.859375,1.0556641c-1.5703125,0-2.8378906-0.53125-3.8066559-1.5947266
			c-0.9677734-1.0634766-1.4521484-2.3945312-1.4521484-3.9931641
			C253.6321869,40.1894531,254.1165619,38.8623047,255.0843353,37.7910156z M258.0111084,43.5117188
			c0.4248047,0.4541016,0.9746094,0.6816406,1.6494141,0.6816406c0.6308594,0,1.2685547-0.1904297,1.9140625-0.5722656v-3.6953125
			c-0.5869141-0.3671875-1.2246094-0.5507812-1.9140625-0.5507812c-0.6748047,0-1.2246094,0.2275391-1.6494141,0.6826172
			c-0.4257812,0.4541016-0.6386719,1.0263672-0.6386719,1.7158203
			C257.3724365,42.4775391,257.5853271,43.0566406,258.0111084,43.5117188z"/>
		<path fill="#383838" d="M268.6107178,36.4277344v-2.6845703h3.6962891v2.6845703h2.859375v2.9697266h-2.859375v2.9697266
			c0,0.6308594,0.1455078,1.078125,0.4394531,1.3417969c0.2929688,0.2646484,0.7255859,0.3964844,1.2978516,0.3964844
			c0.3525391,0,0.7265625-0.0361328,1.1220703-0.1103516v3.0800781c-0.5722656,0.1171875-1.2392578,0.1757812-2.0019531,0.1757812
			c-1.3642578,0-2.4638672-0.3261719-3.2998047-0.9785156s-1.2539062-1.6464844-1.2539062-2.9814453v-3.8935547h-1.5400391
			v-2.9697266H268.6107178z"/>
		<path fill="#383838" d="M277.0960693,33.1708984c0-0.5566406,0.2050781-1.0371094,0.6152344-1.4404297
			C278.1224365,31.3271484,278.62146,31.125,279.2073975,31.125c0.5869141,0,1.0859375,0.2021484,1.4960938,0.6054688
			c0.4111328,0.4033203,0.6162109,0.8837891,0.6162109,1.4404297c0,0.5576172-0.2050781,1.0341797-0.6162109,1.4306641
			c-0.4101562,0.4101562-0.9091797,0.6162109-1.4960938,0.6162109c-0.5859375,0-1.0849609-0.2021484-1.4960938-0.6054688
			C277.3011475,34.2089844,277.0960693,33.7285156,277.0960693,33.1708984z M277.3597412,47.1416016V36.4277344h3.6962891
			v10.7138672H277.3597412z"/>
		<path fill="#383838" d="M283.0413818,41.7734375c0-1.5839844,0.5761719-2.9072266,1.7275391-3.9707031
			s2.5771484-1.5957031,4.2792969-1.5957031c1.7011719,0,3.1347656,0.5322266,4.3007812,1.5957031
			s1.7490234,2.3867188,1.7490234,3.9707031s-0.5800781,2.9111328-1.7382812,3.9814453
			c-1.1738281,1.0712891-2.6103516,1.6064453-4.3115234,1.6064453c-1.7021484,0-3.1279297-0.5351562-4.2792969-1.6064453
			C283.6175537,44.6845703,283.0413818,43.3574219,283.0413818,41.7734375z M287.3978271,43.4892578
			c0.4101562,0.4550781,0.9609375,0.6816406,1.6503906,0.6816406c0.6884766,0,1.2460938-0.2226562,1.671875-0.6708984
			c0.4248047-0.4472656,0.6376953-1.0224609,0.6376953-1.7265625c0-0.6894531-0.2128906-1.2617188-0.6376953-1.7158203
			c-0.4257812-0.4550781-0.9833984-0.6826172-1.671875-0.6826172c-0.6748047,0-1.2216797,0.2275391-1.6396484,0.6826172
			c-0.4179688,0.4541016-0.6269531,1.0263672-0.6269531,1.7158203
			C286.7816162,42.4775391,286.9866943,43.0498047,287.3978271,43.4892578z"/>
		<path fill="#383838" d="M300.5843506,36.4277344v0.9892578c0.25-0.3662109,0.65625-0.6591797,1.2216797-0.8798828
			c0.5644531-0.2197266,1.1474609-0.3300781,1.7490234-0.3300781c1.4658203,0,2.5517578,0.4111328,3.2558594,1.2324219
			s1.0556641,1.9658203,1.0556641,3.4316406v6.2705078h-3.6953125v-5.4121094c0-0.8505859-0.1328125-1.4560547-0.3964844-1.8154297
			S303.0267334,39.375,302.3226318,39.375c-0.5273438,0-1.0341797,0.1328125-1.5175781,0.3964844v7.3701172h-3.6962891V36.4277344
			H300.5843506z"/>
		<path fill="#383838" d="M314.4007568,37.1972656c0.7626953-0.6601562,1.8183594-0.9902344,3.1679688-0.9902344
			c1.4228516,0,2.6914062,0.2060547,3.8056641,0.6162109v2.8603516c-1.3193359-0.4111328-2.5664062-0.6162109-3.7392578-0.6162109
			c-0.6904297,0-1.0341797,0.1611328-1.0341797,0.484375c0,0.1464844,0.0878906,0.2597656,0.2636719,0.3408203
			c0.1757812,0.0800781,0.4980469,0.171875,0.9677734,0.2744141l0.9238281,0.1982422
			c1.1738281,0.25,2.03125,0.6269531,2.5742188,1.1328125s0.8144531,1.2285156,0.8144531,2.1669922
			c0,1.1005859-0.4111328,1.9912109-1.2324219,2.6728516c-0.8212891,0.6826172-2.0097656,1.0234375-3.5634766,1.0234375
			c-1.3789062,0-2.6474609-0.2421875-3.8066406-0.7255859v-3.0146484c1.3349609,0.5576172,2.6542969,0.8359375,3.9599609,0.8359375
			c0.8505859,0,1.2763672-0.1904297,1.2763672-0.5712891c0-0.1611328-0.0810547-0.2822266-0.2421875-0.3632812
			c-0.1611328-0.0800781-0.4765625-0.1650391-0.9462891-0.2529297l-1.0332031-0.2197266
			c-2.2001953-0.4697266-3.3007812-1.5546875-3.3007812-3.2568359
			C313.2562256,38.7226562,313.6380615,37.8574219,314.4007568,37.1972656z"/>
		<path fill="#383838" d="M322.7601318,36.4277344h4.0039062l2.3320312,5.3457031l2.3535156-5.3457031h3.9384766
			l-7.2158203,15.1132812H324.27771l2.9257812-5.8740234L322.7601318,36.4277344z"/>
		<path fill="#383838" d="M337.1986084,37.1972656c0.7626953-0.6601562,1.8183594-0.9902344,3.1679688-0.9902344
			c1.4228516,0,2.6914062,0.2060547,3.8056641,0.6162109v2.8603516c-1.3193359-0.4111328-2.5664062-0.6162109-3.7392578-0.6162109
			c-0.6904297,0-1.0341797,0.1611328-1.0341797,0.484375c0,0.1464844,0.0878906,0.2597656,0.2636719,0.3408203
			c0.1757812,0.0800781,0.4980469,0.171875,0.9677734,0.2744141l0.9238281,0.1982422
			c1.1738281,0.25,2.03125,0.6269531,2.5742188,1.1328125s0.8144531,1.2285156,0.8144531,2.1669922
			c0,1.1005859-0.4111328,1.9912109-1.2324219,2.6728516c-0.8212891,0.6826172-2.0097656,1.0234375-3.5634766,1.0234375
			c-1.3789062,0-2.6474609-0.2421875-3.8066406-0.7255859v-3.0146484c1.3349609,0.5576172,2.6542969,0.8359375,3.9599609,0.8359375
			c0.8505859,0,1.2763672-0.1904297,1.2763672-0.5712891c0-0.1611328-0.0810547-0.2822266-0.2421875-0.3632812
			c-0.1611328-0.0800781-0.4765625-0.1650391-0.9462891-0.2529297l-1.0332031-0.2197266
			c-2.2001953-0.4697266-3.3007812-1.5546875-3.3007812-3.2568359
			C336.0540771,38.7226562,336.4359131,37.8574219,337.1986084,37.1972656z"/>
		<path fill="#383838" d="M347.5609131,36.4277344v-2.6845703h3.6962891v2.6845703h2.859375v2.9697266h-2.859375v2.9697266
			c0,0.6308594,0.1455078,1.078125,0.4394531,1.3417969c0.2929688,0.2646484,0.7255859,0.3964844,1.2978516,0.3964844
			c0.3525391,0,0.7265625-0.0361328,1.1220703-0.1103516v3.0800781c-0.5722656,0.1171875-1.2392578,0.1757812-2.0019531,0.1757812
			c-1.3642578,0-2.4638672-0.3261719-3.2998047-0.9785156s-1.2539062-1.6464844-1.2539062-2.9814453v-3.8935547h-1.5400391
			v-2.9697266H347.5609131z"/>
		<path fill="#383838" d="M367.1624756,41.7949219c0,0.3525391-0.0224609,0.7041016-0.0664062,1.0566406h-7.8095703
			c0.4541016,0.9970703,1.5175781,1.4960938,3.1894531,1.4960938c1.1582031,0,2.3173828-0.2050781,3.4765625-0.6162109v2.9482422
			c-1.0859375,0.4541016-2.3544922,0.6816406-3.8066406,0.6816406c-1.9941406,0-3.5751953-0.5058594-4.7412109-1.5175781
			c-1.1660156-1.0126953-1.7490234-2.3691406-1.7490234-4.0703125c0-1.5986328,0.546875-2.9257812,1.6396484-3.9824219
			c1.0917969-1.0556641,2.4667969-1.5839844,4.125-1.5839844c1.6572266,0,3.0283203,0.5283203,4.1142578,1.5839844
			C366.6195068,38.8476562,367.1624756,40.1826172,367.1624756,41.7949219z M361.4202881,39.1992188
			c-1.1298828,0-1.8632812,0.4990234-2.2001953,1.4960938h4.3339844
			C363.2318115,39.6982422,362.5198975,39.1992188,361.4202881,39.1992188z"/>
		<path fill="#383838" d="M372.6536865,36.4277344v0.9892578c0.25-0.3662109,0.65625-0.6591797,1.2216797-0.8798828
			c0.5644531-0.2197266,1.1474609-0.3300781,1.7490234-0.3300781c1.5400391,0,2.6757812,0.4697266,3.4101562,1.4082031
			c0.2636719-0.4101562,0.7070312-0.7480469,1.3310547-1.0117188c0.6230469-0.2636719,1.25-0.3964844,1.8808594-0.3964844
			c1.4960938,0,2.6621094,0.4179688,3.4980469,1.2539062s1.2539062,1.9736328,1.2539062,3.4101562v6.2705078h-3.6962891v-5.4121094
			c0-0.8505859-0.1318359-1.4560547-0.3955078-1.8154297c-0.2646484-0.359375-0.7480469-0.5390625-1.4521484-0.5390625
			c-0.5429688,0-1.0712891,0.1396484-1.5839844,0.4179688c0.0439453,0.3378906,0.0654297,0.6972656,0.0654297,1.078125v6.2705078
			h-3.6953125v-5.4121094c0-0.8505859-0.1328125-1.4560547-0.3964844-1.8154297S375.0960693,39.375,374.3919678,39.375
			c-0.5273438,0-1.0341797,0.1328125-1.5175781,0.3964844v7.3701172h-3.6962891V36.4277344H372.6536865z"/>
		<path fill="#383838" d="M390.1810303,37.1972656c0.7626953-0.6601562,1.8183594-0.9902344,3.1679688-0.9902344
			c1.4228516,0,2.6914062,0.2060547,3.8056641,0.6162109v2.8603516c-1.3193359-0.4111328-2.5664062-0.6162109-3.7392578-0.6162109
			c-0.6904297,0-1.0341797,0.1611328-1.0341797,0.484375c0,0.1464844,0.0878906,0.2597656,0.2636719,0.3408203
			c0.1757812,0.0800781,0.4980469,0.171875,0.9677734,0.2744141l0.9238281,0.1982422
			c1.1738281,0.25,2.03125,0.6269531,2.5742188,1.1328125s0.8144531,1.2285156,0.8144531,2.1669922
			c0,1.1005859-0.4111328,1.9912109-1.2324219,2.6728516c-0.8212891,0.6826172-2.0097656,1.0234375-3.5634766,1.0234375
			c-1.3789062,0-2.6474609-0.2421875-3.8066406-0.7255859v-3.0146484c1.3349609,0.5576172,2.6542969,0.8359375,3.9599609,0.8359375
			c0.8505859,0,1.2763672-0.1904297,1.2763672-0.5712891c0-0.1611328-0.0810547-0.2822266-0.2421875-0.3632812
			c-0.1611328-0.0800781-0.4765625-0.1650391-0.9462891-0.2529297l-1.0332031-0.2197266
			c-2.2001953-0.4697266-3.3007812-1.5546875-3.3007812-3.2568359
			C389.036499,38.7226562,389.418335,37.8574219,390.1810303,37.1972656z"/>
	</g>
</g>
<g id="Mode_Isolation">
	<g>
		<path fill="#DD0069" d="M179.9815063,73.8900604l1.4582825-0.5449448
			c0.2994843,0.9403458,0.8037109,1.2942429,1.7307434,1.2942429c0.8448334,0,1.3764648-0.4361115,1.3764648-1.1446991
			c0-0.6678696-0.3679962-1.0358658-1.785553-1.3897705c-1.7307587-0.4361115-2.5348663-1.2402191-2.5348663-2.6847916
			c0-1.4719849,1.0765839-2.4671402,2.8621368-2.4671402c1.4308777,0,2.3575287,0.5997543,2.7666168,1.8125763l-1.4445648,0.5997543
			c-0.1773529-0.6404724-0.6271667-0.9536591-1.3901672-0.9536591c-0.7359924,0-1.1995087,0.3539047-1.1858063,0.912941
			c0.0137024,0.6404724,0.395401,0.9270401,1.9080963,1.3357468c1.690033,0.4635162,2.4256287,1.2942429,2.4256287,2.7803192
			c0,1.6215286-1.1991119,2.6573944-3.0798035,2.6573944C181.3849792,76.0980301,180.3765106,75.375351,179.9815063,73.8900604z"/>
		<path fill="#DD0069" d="M187.0959473,72.9223099c0-1.9621201,1.4445801-3.1483154,3.1483154-3.1483154
			c1.1172943,0,2.0032349,0.4094925,2.5485687,1.4445801l-1.1858063,0.7907944
			c-0.299881-0.5449448-0.7359924-0.817421-1.3627625-0.817421c-0.8722229,0-1.5675049,0.6404724-1.5675049,1.7303619
			c0,1.1313934,0.695282,1.7585449,1.5675049,1.7585449c0.72229,0,1.1172943-0.2724686,1.4034729-0.8315125l1.1721039,0.7633972
			c-0.5449371,1.0765839-1.5534058,1.471199-2.6710968,1.471199
			C188.4317017,76.0839386,187.0959473,75.0073547,187.0959473,72.9223099z"/>
		<path fill="#DD0069" d="M199.6622009,72.4321747v3.5022125h-1.6356201v-3.3526688
			c0-0.8041077-0.4361115-1.3897705-1.2539215-1.3897705c-0.8037262,0-1.2672424,0.6130676-1.2672424,1.4030838v3.3393555
			h-1.6489258v-9.2538986h1.6489258v3.2438354l-0.0274048,0.6271591c0.395401-0.490921,0.995163-0.7774887,1.8399811-0.7774887
			C198.8851013,69.7739944,199.6622009,70.8646698,199.6622009,72.4321747z"/>
		<path fill="#DD0069" d="M200.7935944,72.9364014c0-1.7311401,1.294632-3.1624069,3.2027283-3.1624069
			c2.0036163,0,3.2027283,1.3631516,3.2027283,3.1624069c0,1.7303619-1.3083344,3.1616287-3.2027283,3.1616287
			C201.9656982,76.0980301,200.7935944,74.7348862,200.7935944,72.9364014z M205.6182404,72.9364014
			c0-1.008461-0.6541748-1.7718506-1.6219177-1.7718506c-0.9810638,0-1.6219177,0.7767029-1.6219177,1.7851639
			c0,0.9810638,0.6408539,1.7444534,1.6219177,1.7444534C204.9640656,74.6941681,205.6182404,73.9033737,205.6182404,72.9364014z"/>
		<path fill="#DD0069" d="M208.003952,72.9364014c0-1.7311401,1.294632-3.1624069,3.2027283-3.1624069
			c2.0036163,0,3.2027283,1.3631516,3.2027283,3.1624069c0,1.7303619-1.3083344,3.1616287-3.2027283,3.1616287
			C209.1760559,76.0980301,208.003952,74.7348862,208.003952,72.9364014z M212.828598,72.9364014
			c0-1.008461-0.6541748-1.7718506-1.6219177-1.7718506c-0.9810638,0-1.6219177,0.7767029-1.6219177,1.7851639
			c0,0.9810638,0.6408539,1.7444534,1.6219177,1.7444534C212.1744232,74.6941681,212.828598,73.9033737,212.828598,72.9364014z"/>
		<path fill="#DD0069" d="M215.6233978,66.6804886h1.648941v9.2538986h-1.648941V66.6804886z"/>
		<path fill="#DD0069" d="M221.2654724,72.9364014c0-1.7311401,1.294632-3.1624069,3.2027283-3.1624069
			c2.0036163,0,3.2027435,1.3631516,3.2027435,3.1624069c0,1.7303619-1.3083496,3.1616287-3.2027435,3.1616287
			C222.4375763,76.0980301,221.2654724,74.7348862,221.2654724,72.9364014z M226.0901184,72.9364014
			c0-1.008461-0.6541595-1.7718506-1.6219177-1.7718506c-0.9810486,0-1.6219177,0.7767029-1.6219177,1.7851639
			c0,0.9810638,0.6408691,1.7444534,1.6219177,1.7444534C225.4359589,74.6941681,226.0901184,73.9033737,226.0901184,72.9364014z"/>
		<path fill="#DD0069" d="M230.9288635,69.9924469h1.5538025v1.3490524h-1.5538025v4.5928879h-1.6489258v-4.5928879h-0.926651
			v-1.3490524h0.926651V68.875145c0-1.4445724,0.8996277-2.3034897,2.2623901-2.3034897
			c0.8311157,0,1.4582825,0.2998734,1.8669891,0.9270325l-1.0628815,0.9262543
			c-0.1362457-0.2591629-0.3542938-0.395401-0.6678772-0.395401c-0.4768219,0-0.7496948,0.3139725-0.7496948,0.9137268V69.9924469z"
			/>
		<path fill="#DD0069" d="M241.5189056,74.4765015v1.4578857h-5.1652374v-8.8036957h5.029007v1.4578934h-3.3526764v2.0991364
			h3.0253906v1.471199h-3.0253906v2.3175812H241.5189056z"/>
		<path fill="#DD0069" d="M248.5656281,72.4047699v3.5296173h-1.6356201v-3.3393555
			c0-0.8448257-0.4224243-1.4030838-1.2539368-1.4030838c-0.8178101,0-1.2809296,0.6130676-1.2809296,1.4171753v3.325264h-1.6489258
			v-5.9419403h1.5263977v0.6678696c0.4087067-0.5590363,1.0354767-0.886322,1.9488068-0.886322
			C247.7885284,69.7739944,248.5656281,70.837265,248.5656281,72.4047699z"/>
		<path fill="#DD0069" d="M255.4487,71.2600708h-1.0765839c0.204361,0.3264999,0.326889,0.6944885,0.326889,1.0765839
			c0,0.6537781-0.3131866,1.199501-0.9540405,1.7037354l-0.7085876,0.5989685
			c-0.1225433,0.0955276-0.2317657,0.1777344-0.3679962,0.2317581h0.7359924c1.3083344,0,1.9899139,0.6404724,1.9899139,1.7170563
			c0,1.2402191-1.117691,2.0991364-3.0257874,2.0991364c-1.4445801,0-2.3849182-0.4087143-2.8754578-1.3357468l1.1446991-0.8722229
			c0.3272858,0.5997543,0.8041229,0.8996277,1.717453,0.8996277c1.0221558,0,1.5263977-0.2317581,1.5263977-0.7085876
			c0-0.3679962-0.2454681-0.5316315-0.6408691-0.5316315h-2.2349854v-0.9951553l0.8452148-0.7218933
			c-1.3083344-0.1229324-2.1535492-0.912941-2.1535492-2.1672592c0-1.308342,1.0358734-2.2619934,2.5215454-2.2619934h3.243454
			L255.4487,71.2600708z M252.2189484,73.2629013c0.5723572,0,0.9536591-0.4494247,0.9536591-1.008461
			c0-0.5582581-0.3679962-0.9810638-0.9536591-0.9810638c-0.6271515,0-0.9814453,0.4228058-0.9814453,0.9810638
			C251.2375031,72.8408813,251.6054993,73.2629013,252.2189484,73.2629013z"/>
		<path fill="#DD0069" d="M256.3487244,67.9348068c0-0.5997543,0.4772034-1.0773697,1.090271-1.0773697
			c0.599762,0,1.0903015,0.4776154,1.0903015,1.0773697c0,0.61306-0.4905396,1.1031952-1.0903015,1.1031952
			C256.8259277,69.038002,256.3487244,68.5478668,256.3487244,67.9348068z M256.6078796,69.9924469h1.6489258v5.9419403h-1.6489258
			V69.9924469z"/>
		<path fill="#DD0069" d="M265.6985474,72.4047699v3.5296173h-1.6356201v-3.3393555
			c0-0.8448257-0.4224243-1.4030838-1.2539368-1.4030838c-0.8178101,0-1.2809448,0.6130676-1.2809448,1.4171753v3.325264h-1.6489258
			v-5.9419403h1.5263977v0.6678696c0.4087219-0.5590363,1.0354919-0.886322,1.948822-0.886322
			C264.9214478,69.7739944,265.6985474,70.837265,265.6985474,72.4047699z"/>
		<path fill="#DD0069" d="M272.7174683,73.3584213h-4.265625c0.1225281,0.8722305,0.6404724,1.4038696,1.4852905,1.4038696
			c0.6815796,0,1.0769653-0.2591629,1.3494568-0.790802l1.2946167,0.5590363
			c-0.463501,1.0225601-1.4308472,1.5675049-2.6847839,1.5675049c-1.7037354,0-3.0527954-1.0225525-3.0527954-3.1483154
			c0-1.7577667,1.2128296-3.1757202,3.0664978-3.1757202c1.7851562,0,2.8484497,1.2402267,2.8484497,3.0527954
			C272.7585754,73.0178375,272.7585754,73.1947861,272.7174683,73.3584213z M268.4925537,72.241127h2.6578064
			c-0.1229553-0.7492981-0.5453491-1.1854095-1.2676392-1.1854095
			C269.2015381,71.0557175,268.6835938,71.4503326,268.4925537,72.241127z"/>
		<path fill="#DD0069" d="M279.450592,73.3584213h-4.265625c0.1225586,0.8722305,0.6404724,1.4038696,1.4852905,1.4038696
			c0.6815796,0,1.0769958-0.2591629,1.3494568-0.790802l1.2946472,0.5590363
			c-0.4635315,1.0225601-1.4308777,1.5675049-2.6848145,1.5675049c-1.7037354,0-3.0527954-1.0225525-3.0527954-3.1483154
			c0-1.7577667,1.2128296-3.1757202,3.0664978-3.1757202c1.7851868,0,2.8484497,1.2402267,2.8484497,3.0527954
			C279.4916992,73.0178375,279.4916992,73.1947861,279.450592,73.3584213z M275.225708,72.241127h2.6577759
			c-0.1229248-0.7492981-0.5453491-1.1854095-1.2676392-1.1854095
			C275.9346619,71.0557175,275.416748,71.4503326,275.225708,72.241127z"/>
		<path fill="#DD0069" d="M284.1942139,69.8421173v1.6223068c-1.0495911,0-1.8399963,0.6404648-1.8399963,1.7984772v2.6714859
			h-1.6489258v-5.9419403h1.6078186v0.8996277C282.6948242,70.2516098,283.2945862,69.8421173,284.1942139,69.8421173z"/>
		<path fill="#DD0069" d="M284.9576111,67.9348068c0-0.5997543,0.4772034-1.0773697,1.090271-1.0773697
			c0.599762,0,1.090271,0.4776154,1.090271,1.0773697c0,0.61306-0.490509,1.1031952-1.090271,1.1031952
			C285.4348145,69.038002,284.9576111,68.5478668,284.9576111,67.9348068z M285.2167664,69.9924469h1.6489258v5.9419403h-1.6489258
			V69.9924469z"/>
		<path fill="#DD0069" d="M294.3074036,72.4047699v3.5296173h-1.6356201v-3.3393555
			c0-0.8448257-0.4223938-1.4030838-1.2539062-1.4030838c-0.8178101,0-1.2809448,0.6130676-1.2809448,1.4171753v3.325264h-1.6489258
			v-5.9419403h1.5263977v0.6678696c0.4087219-0.5590363,1.0354614-0.886322,1.9487915-0.886322
			C293.5303345,69.7739944,294.3074036,70.837265,294.3074036,72.4047699z"/>
		<path fill="#DD0069" d="M301.1904907,71.2600708h-1.0765686c0.2043457,0.3264999,0.3268738,0.6944885,0.3268738,1.0765839
			c0,0.6537781-0.3131714,1.199501-0.9540405,1.7037354l-0.7085876,0.5989685
			c-0.1225281,0.0955276-0.2317505,0.1777344-0.367981,0.2317581h0.7359619c1.3083496,0,1.9899292,0.6404724,1.9899292,1.7170563
			c0,1.2402191-1.1176758,2.0991364-3.0257874,2.0991364c-1.4445801,0-2.3849182-0.4087143-2.8754578-1.3357468l1.1447144-0.8722229
			c0.3272705,0.5997543,0.8041077,0.8996277,1.7174377,0.8996277c1.0221558,0,1.5263977-0.2317581,1.5263977-0.7085876
			c0-0.3679962-0.2454529-0.5316315-0.6408691-0.5316315h-2.2349854v-0.9951553l0.8452148-0.7218933
			c-1.3083191-0.1229324-2.1535339-0.912941-2.1535339-2.1672592c0-1.308342,1.0358582-2.2619934,2.5215454-2.2619934h3.2434387
			L301.1904907,71.2600708z M297.9607544,73.2629013c0.5723572,0,0.9536438-0.4494247,0.9536438-1.008461
			c0-0.5582581-0.367981-0.9810638-0.9536438-0.9810638c-0.6271667,0-0.9814453,0.4228058-0.9814453,0.9810638
			C296.9793091,72.8408813,297.34729,73.2629013,297.9607544,73.2629013z"/>
	</g>
	<g>
		<g id="basePicoIngénieur_7_">
			<path fill="#DD0069" d="M144.468689,83.7511139c0,1.0472717,0.8491364,1.8969727,1.8964386,1.8969727h21.0296021
				c1.0473022,0,1.8964386-0.8497009,1.8964386-1.8969727V62.7225914c0-1.0478592-0.8491364-1.8969803-1.8964386-1.8969803
				h-21.0296021c-1.0473022,0-1.8964386,0.8491211-1.8964386,1.8969803V83.7511139z"/>
		</g>
		<g id="PictoIngénieurBlanc_7_">
			<path fill="#FFFFFF" d="M158.2475739,68.7206879h-2.8663635c-0.1423798,1.6615906-0.2791595,3.0747299-0.411377,4.1357727
				c-0.1333923,1.0610504-0.259903,1.8685074-0.3806915,2.6326675c-0.1287231,0.7629929-0.2575684,1.4593506-0.3886261,2.0867386
				c-0.1093445,0.4911957-0.2621155,0.87117-0.4752197,1.1464691c-0.2075043,0.2769318-0.5129089,0.4689026-0.9140167,0.576622
				c-0.3350677,0.0815735-0.6633453,0.0154037-0.992691-0.1982727c-0.3237305-0.2148514-0.5174713-0.4712448-0.5868988-0.7692947
				c-0.0490265-0.2210388-0.0626831-0.408577-0.0365295-0.5623856c0.0205383-0.1533432,0.0661621-0.2951355,0.1356049-0.4273605
				c0.067215-0.1316376,0.1401672-0.2507935,0.225708-0.3607254c0.0774841-0.1065445,0.1652527-0.2130966,0.2552338-0.3213959
				c0.0296326-0.0330276,0.1721344-0.2016602,0.4330902-0.5065994c0.2621155-0.3059921,0.4547882-0.5851364,0.5892334-0.83815
				c0.1298981-0.2507858,0.417099-0.8046494,0.5607605-1.4941254c0.1458893-0.6894684,0.4398651-3.048584,0.4341431-5.0999603
				c-0.2198792,0-1.2057953,0-1.2057953,0c-0.3406525,0-0.6723175,0.1116791-0.9846191,0.2745972
				c-0.3042603,0.1601181-0.5732574,0.430275-0.694046,0.5840912c-0.1276703,0.1589432-0.4559631,0.6906357-0.535675,0.7926331
				c-0.0763245,0.1031647-0.2324677,0.3395996-0.3522034,0.3031921c-0.1298981-0.0410767-0.1014252-0.1863708-0.0808868-0.3031921
				c0.0227661-0.1162338,0.2575684-0.7100067,0.4330902-1.1567383c0.1800842-0.4512863,0.4194336-0.8867035,0.7248535-1.3077545
				c0.2358551-0.357811,0.5618134-0.610817,0.9652557-0.8673248c0.4080048-0.2626953,0.8764496-0.3925858,1.4155121-0.3925858
				c0,0,8.6251221,0,8.7812653,0c0.152771,0,0.9778748,0.0655899,0.9778748,1.0286026
				c0,0.961853-0.8764496,1.0444794-0.9778748,1.0444794c-0.1025696,0-2.4936066,0-2.4936066,0
				c-0.2085571,1.9761047-0.311142,4.0149918-0.311142,6.0145493c0,0.3629379,0.0604553,0.7191162,0.1858063,1.0644302
				c0.1253357,0.3481216,0.2781067,0.6125641,0.4592285,0.7914734c0.2348022,0.2170639,0.5152435,0.3550034,0.8513489,0.418251
				c0.338562,0.0610352,0.6781769-0.0432892,1.0234985-0.3150864c0.1903381-0.1510162,0.3281708-0.3196487,0.4194336-0.5071869
				c0.0854187-0.1909256,0.1401672-0.3755417,0.1663055-0.5469818c0.0228729-0.1749344,0.061615-0.4200058,0.0683899-0.4792862
				c0.0068817-0.059288-0.0045624-0.2757721,0.241684-0.2945557c0.2461395-0.0187912,0.271225,0.19944,0.2939758,0.4364624
				c0.0205536,0.2376022-0.105957,1.119751-0.304245,1.6678925c-0.1982727,0.551651-0.4376373,0.9920807-0.710022,1.3254929
				c-0.2747192,0.337265-0.5413971,0.5777893-0.8046722,0.725296c-0.2996979,0.1818237-0.6495819,0.2911758-1.0439148,0.3294525
				c-0.4012299,0.0369949-0.7659302-0.0559006-1.094101-0.2780991c-0.5459442-0.3988876-0.9642181-1.0217209-1.2423248-1.8713074
				c-0.1629181-0.4969101-0.2461243-1.1505585-0.264328-1.9653625c-0.0250854-0.8137589,0.0022125-1.6086121,0.0774841-2.385376
				L158.2475739,68.7206879z"/>
		</g>
	</g>
	<g>
	</g>
	<g>
	</g>
	<g>
	</g>
	<g>
	</g>
	<g>
	</g>
	<g>
	</g>
</g>
</svg>
